<svg id="Layer_1" data-name="Layer 1" xmlns="http://www.w3.org/2000/svg" xmlns:xlink="http://www.w3.org/1999/xlink" viewBox="0 0 512 512"><defs><style>.cls-1{fill:url(#linear-gradient);}.cls-2{fill:url(#linear-gradient-2);}.cls-3{fill:#231f20;}.cls-4{fill:#f7941d;}.cls-5{fill:url(#linear-gradient-3);}</style><linearGradient id="linear-gradient" x1="280.7" y1="59.32" x2="366.71" y2="276.07" gradientUnits="userSpaceOnUse"><stop offset="0" stop-color="#f7d716"/><stop offset="1" stop-color="#eb5927"/></linearGradient><linearGradient id="linear-gradient-2" x1="295.77" y1="35.32" x2="185.69" y2="297.81" gradientUnits="userSpaceOnUse"><stop offset="0" stop-color="#28bdbb"/><stop offset="1" stop-color="#163c66"/></linearGradient><linearGradient id="linear-gradient-3" x1="256" y1="318.85" x2="256" y2="430.1" xlink:href="#linear-gradient-2"/></defs><path class="cls-1" d="M389.91,205.38c-1.42-9.18-5-17.67-11.67-24.32-4.67-4.67-10.06-8.62-15-12.78,2.25-2.83,5.21-6,7.52-9.54,12-18.44,11.36-37.6,2.37-56.84-8.22-17.6-21.76-30.53-37.84-41C324.25,53.75,312.14,49,299.2,45.36v3c0,13.37.06,26.74,0,40.12a3.68,3.68,0,0,0,2.22,3.76c9.51,5.44,18.46,11.62,25.23,20.44a32.47,32.47,0,0,1,7.08,22.45c-.53,8.22-8,15.41-17.93,16.12-9,.65-18.12.45-27.19.61-.13,0-.27-.16-.43-.3V193c4.59,0,9.13-.09,13.67,0,8.61.2,17.32-1,25.78,1.73s15,7.79,16.33,17c1.32,9.05-1.86,16.88-8.87,22.86-6,5.15-13.24,7.33-21.09,7.39-8.45.06-16.9,0-25.82,0v26.85a95.22,95.22,0,0,0,23.77,11.26c8.93,2.83,18.06,4.66,27.56,2.54,15.36-3.43,27-12.38,36.58-24.35C388.42,242.76,392.93,225,389.91,205.38Z"/><path class="cls-2" d="M254.92,230.77c8.22,16,19.17,28.8,33.22,38.07,0,0,12.6,8.32,23.08,11-17.88-11.35-23.08-25.76-23.08-37.87-.07-2.81,0,0-.06,0V193h.06v-41.4l-.09-.07V42.54c-18.87-5.73-51-.12-55,.92-31.81,8.1-58.21,24.41-76.89,51.78-22.55,33.06-30.51,69.29-20.87,108.46,8.05,32.72,26.9,57.51,57.42,72.63a103.38,103.38,0,0,0,57.71,10.4,110.15,110.15,0,0,0,30-7.65C265.84,268,255,254.41,244,240.69c-21.74,1.72-38.09-7.11-50.9-22.13-10.28-12.06-14.51-26.68-15.65-42.1-1.38-18.82,3.18-36.46,12.71-52.79,11.57-19.83,30.34-30,52.82-35.06,0,30.33.09,60.65,0,91A110.74,110.74,0,0,0,254.92,230.77Z"/><path class="cls-3" d="M147.83,472c-4.43,0-8-1.25-10.57-3.78s-3.94-6.2-3.94-11v-8.36q0-7.26,3.91-11.05T147.78,434q6.58,0,10.12,3.6t3.54,9.87v.26H157v-.42a10,10,0,0,0-2.27-6.76c-1.51-1.76-3.83-2.64-7-2.64a9.63,9.63,0,0,0-7.38,2.86q-2.66,2.85-2.64,8v8.57c0,3.41.89,6.07,2.66,8a9.58,9.58,0,0,0,7.38,2.84c3.15,0,5.48-.89,7-2.65a10,10,0,0,0,2.25-6.76v-.84h4.41v.67q0,6.27-3.52,9.88T147.83,472Z"/><path class="cls-3" d="M168.35,471.24l0-36.57h4.2v15.1h.74a7.19,7.19,0,0,1,1.62-2.17,9,9,0,0,1,2.82-1.71,12,12,0,0,1,4.37-.68,11.13,11.13,0,0,1,5.24,1.22A9.32,9.32,0,0,1,191,450a11.23,11.23,0,0,1,1.39,5.77v15.47h-4.19l0-15.15q0-3.81-1.94-5.54a7.58,7.58,0,0,0-5.23-1.71,8.17,8.17,0,0,0-6.13,2.41q-2.35,2.4-2.36,7.16l0,12.85Z"/><path class="cls-3" d="M212.55,471.93a14.12,14.12,0,0,1-6.91-1.64,11.67,11.67,0,0,1-4.62-4.62,14.14,14.14,0,0,1-1.66-6.9v-.62A14.09,14.09,0,0,1,201,451.2a11.61,11.61,0,0,1,4.56-4.63,13.33,13.33,0,0,1,6.69-1.65,13.15,13.15,0,0,1,6.48,1.53,10.89,10.89,0,0,1,4.41,4.41,13.56,13.56,0,0,1,1.6,6.73v1.88l-21.18,0a8.79,8.79,0,0,0,2.71,6.45,9.06,9.06,0,0,0,6.38,2.31,7.74,7.74,0,0,0,5.15-1.52,10.13,10.13,0,0,0,2.75-3.6l3.61,1.72A15,15,0,0,1,222,468.1a11.37,11.37,0,0,1-3.66,2.72A13.37,13.37,0,0,1,212.55,471.93Zm-8.94-15.83,16.88,0a7.64,7.64,0,0,0-2.47-5.53,8.44,8.44,0,0,0-5.77-2,8.61,8.61,0,0,0-5.84,2A8.75,8.75,0,0,0,203.61,456.1Z"/><path class="cls-3" d="M232,471.17l0-25.55H236v3.19h.75a7.49,7.49,0,0,1,2.44-2.51,10.2,10.2,0,0,1,9.69.15,7.83,7.83,0,0,1,2.74,3.18h.74a8.31,8.31,0,0,1,2.73-3.19,8.71,8.71,0,0,1,5.12-1.31,9.54,9.54,0,0,1,4.57,1,7.67,7.67,0,0,1,3.11,3,9.21,9.21,0,0,1,1.15,4.67l0,17.3h-4.2l0-16.93a5.4,5.4,0,0,0-1.51-4,5.79,5.79,0,0,0-4.23-1.49,6.45,6.45,0,0,0-4.7,1.83,7.23,7.23,0,0,0-1.82,5.29l0,15.36h-4.2l0-16.93a5.44,5.44,0,0,0-1.51-4,5.76,5.76,0,0,0-4.23-1.49,6.38,6.38,0,0,0-4.69,1.84,7.09,7.09,0,0,0-1.83,5.28l0,15.36Z"/><path class="cls-3" d="M287,471.11a4.6,4.6,0,0,1-3.42-1.2,4.46,4.46,0,0,1-1.21-3.29l0-17.45h-7.8v-3.61h7.8v-9.09h4.19l0,9.09H295v3.6h-8.49l0,16.83a1.37,1.37,0,0,0,1.54,1.56h5.79v3.55Z"/><path class="cls-3" d="M312.88,471.81a14.08,14.08,0,0,1-6.9-1.64,11.5,11.5,0,0,1-4.63-4.62,14,14,0,0,1-1.65-6.89V458a14,14,0,0,1,1.64-6.95,11.61,11.61,0,0,1,4.56-4.63,14.42,14.42,0,0,1,13.16-.12,11.1,11.1,0,0,1,4.42,4.41,13.82,13.82,0,0,1,1.6,6.74v1.88l-21.19,0a8.78,8.78,0,0,0,2.72,6.45,9.11,9.11,0,0,0,6.38,2.32,7.76,7.76,0,0,0,5.14-1.52,10.22,10.22,0,0,0,2.76-3.61l3.61,1.72a15.11,15.11,0,0,1-2.2,3.24,11.16,11.16,0,0,1-3.66,2.72A13,13,0,0,1,312.88,471.81ZM303.94,456l16.89,0a7.65,7.65,0,0,0-2.48-5.54,8.4,8.4,0,0,0-5.76-2,8.6,8.6,0,0,0-5.84,2A8.74,8.74,0,0,0,303.94,456Z"/><path class="cls-3" d="M344.3,471.77a14.24,14.24,0,0,1-6.77-1.58,11.75,11.75,0,0,1-4.73-4.57,13.82,13.82,0,0,1-1.73-7.05V458a13.71,13.71,0,0,1,1.72-7.08,11.74,11.74,0,0,1,4.72-4.55,14.29,14.29,0,0,1,6.76-1.6,13.76,13.76,0,0,1,6.35,1.35,11,11,0,0,1,4.15,3.6,12.15,12.15,0,0,1,1.94,4.81l-4.09.84a8.63,8.63,0,0,0-1.25-3.45,7.13,7.13,0,0,0-2.74-2.5,9,9,0,0,0-4.3-.94,9.43,9.43,0,0,0-4.65,1.15,8.41,8.41,0,0,0-3.23,3.3,10.44,10.44,0,0,0-1.19,5.12v.47a10.31,10.31,0,0,0,1.2,5.12,8.4,8.4,0,0,0,3.24,3.29,9.43,9.43,0,0,0,4.66,1.14,8.15,8.15,0,0,0,5.91-2,8.63,8.63,0,0,0,2.52-4.91l4.14.88a14,14,0,0,1-2.12,4.76,11.2,11.2,0,0,1-4.16,3.61A13.75,13.75,0,0,1,344.3,471.77Z"/><path class="cls-3" d="M363.79,471l0-36.57h4.19l0,15.1h.74a7.19,7.19,0,0,1,1.62-2.17,8.62,8.62,0,0,1,2.81-1.7,11.9,11.9,0,0,1,4.38-.69,11.13,11.13,0,0,1,5.24,1.22,9.46,9.46,0,0,1,3.69,3.55,11.17,11.17,0,0,1,1.38,5.78l0,15.46h-4.19l0-15.15c0-2.54-.65-4.39-1.94-5.53a7.61,7.61,0,0,0-5.24-1.72,8.24,8.24,0,0,0-6.13,2.41q-2.35,2.4-2.35,7.16V471Z"/><path class="cls-4" d="M118,408.28V381.43H89.81v26.85H77.59V350.19c9.4-12,47.74-10.45,51.19,3.24a47.3,47.3,0,0,1,1.46,11.28v43.57Zm-.84-52.55c-1-6.06-7.94-9.2-14.83-9.2a39.79,39.79,0,0,0-12.54,1.89v28.41H118V364.71A60.64,60.64,0,0,0,117.18,355.73Z"/><path class="cls-4" d="M151,408.28H138.81V364l10.34,1.36c4.91-2.09,11.18-3,17.55-3,12.22,0,24.55,3.87,26.43,11.39a48.6,48.6,0,0,1,1.36,12v22.57H182.27V385.71a56,56,0,0,0-.73-9.72c-1-6.05-7.95-9.29-14.84-9.29-5.85,0-11.6,1.14-15.67,3.34v38.24Z"/><path class="cls-4" d="M231.7,351.34v-1.15c4.59-5.74,14.83-8.15,26.11-8.15s22.78,3,24.55,9.51a23.28,23.28,0,0,1,.94,6.27c0,6.79-2.4,10.86-10,13.79,11.5,3.34,13.9,9.4,13.9,18a34.09,34.09,0,0,1-1.15,8.26c-2,7.73-14.21,11.6-26.43,11.6s-24.55-4-26.54-11.81a46.44,46.44,0,0,1-1.35-11.81Zm26.43-4.81c-6.06,0-10.66.63-14.21,1.89v21.41h16.4c8.36-.31,12.54-4.81,12.54-12,0-6.9-2.93-10.14-9.93-11.08A33.63,33.63,0,0,0,258.13,346.53Zm-.74,27.79H243.92v11.49a55.64,55.64,0,0,0,.73,9.62c1.15,6.37,7.94,9.5,14.94,9.5,10,0,15.46-5.22,15.46-15.36,0-9.92-5.12-15.25-15.46-15.25h-2.2Z"/><path class="cls-4" d="M307.08,353.43c-.94,4.28-13.06,4.18-14.1.21a16.82,16.82,0,0,1,0-6.48c1-4.08,13.06-4.08,14.1.1A12.17,12.17,0,0,1,307.08,353.43Zm-13.16,54.85v-45l12.22,1.67v43.36Z"/><path class="cls-4" d="M326.84,408.28H314.62V364L325,365.34c4.91-2.09,11.18-3,17.55-3,12.23,0,24.55,3.87,26.43,11.39a48.6,48.6,0,0,1,1.36,12v22.57H358.08V385.71a56,56,0,0,0-.73-9.72c-1.05-6.05-7.94-9.29-14.84-9.29-5.85,0-11.59,1.14-15.67,3.34v38.24Z"/><path class="cls-4" d="M391,408.28H378.73V343.19L391,344.76v19.85a49.79,49.79,0,0,1,15.67-2.3c12.23,0,24.55,3.87,26.44,11.39a49.09,49.09,0,0,1,1.35,12v22.57H422.19V385.71a56,56,0,0,0-.73-9.72c-1-6.05-7.94-9.29-14.84-9.29-5.85,0-11.59,1.14-15.67,3.34v38.24Z"/><path class="cls-5" d="M118,408.28V381.43H89.81v26.85H77.59V350.19c9.4-12,47.74-10.45,51.19,3.24a47.3,47.3,0,0,1,1.46,11.28v43.57Zm-.84-52.55c-1-6.06-7.94-9.2-14.83-9.2a39.79,39.79,0,0,0-12.54,1.89v28.41H118V364.71A60.64,60.64,0,0,0,117.18,355.73Z"/><path class="cls-5" d="M151,408.28H138.81V364l10.34,1.36c4.91-2.09,11.18-3,17.55-3,12.22,0,24.55,3.87,26.43,11.39a48.6,48.6,0,0,1,1.36,12v22.57H182.27V385.71a56,56,0,0,0-.73-9.72c-1-6.05-7.95-9.29-14.84-9.29-5.85,0-11.6,1.14-15.67,3.34v38.24Z"/><path class="cls-5" d="M231.7,351.34v-1.15c4.59-5.74,14.83-8.15,26.11-8.15s22.78,3,24.55,9.51a23.28,23.28,0,0,1,.94,6.27c0,6.79-2.4,10.86-10,13.79,11.5,3.34,13.9,9.4,13.9,18a34.09,34.09,0,0,1-1.15,8.26c-2,7.73-14.21,11.6-26.43,11.6s-24.55-4-26.54-11.81a46.44,46.44,0,0,1-1.35-11.81Zm26.43-4.81c-6.06,0-10.66.63-14.21,1.89v21.41h16.4c8.36-.31,12.54-4.81,12.54-12,0-6.9-2.93-10.14-9.93-11.08A33.63,33.63,0,0,0,258.13,346.53Zm-.74,27.79H243.92v11.49a55.64,55.64,0,0,0,.73,9.62c1.15,6.37,7.94,9.5,14.94,9.5,10,0,15.46-5.22,15.46-15.36,0-9.92-5.12-15.25-15.46-15.25h-2.2Z"/><path class="cls-5" d="M307.08,353.43c-.94,4.28-13.06,4.18-14.1.21a16.82,16.82,0,0,1,0-6.48c1-4.08,13.06-4.08,14.1.1A12.17,12.17,0,0,1,307.08,353.43Zm-13.16,54.85v-45l12.22,1.67v43.36Z"/><path class="cls-5" d="M326.84,408.28H314.62V364L325,365.34c4.91-2.09,11.18-3,17.55-3,12.23,0,24.55,3.87,26.43,11.39a48.6,48.6,0,0,1,1.36,12v22.57H358.08V385.71a56,56,0,0,0-.73-9.72c-1.05-6.05-7.94-9.29-14.84-9.29-5.85,0-11.59,1.14-15.67,3.34v38.24Z"/><path class="cls-5" d="M391,408.28H378.73V343.19L391,344.76v19.85a49.79,49.79,0,0,1,15.67-2.3c12.23,0,24.55,3.87,26.44,11.39a49.09,49.09,0,0,1,1.35,12v22.57H422.19V385.71a56,56,0,0,0-.73-9.72c-1-6.05-7.94-9.29-14.84-9.29-5.85,0-11.59,1.14-15.67,3.34v38.24Z"/></svg>