<svg id="Layer_1" data-name="Layer 1" xmlns="http://www.w3.org/2000/svg" xmlns:xlink="http://www.w3.org/1999/xlink" viewBox="0 0 100 100"><defs><style>.cls-1{fill:url(#linear-gradient);}.cls-2{fill:url(#linear-gradient-2);}.cls-3{fill:#231f20;}.cls-4{fill:#f7941d;}.cls-5{fill:url(#linear-gradient-3);}</style><linearGradient id="linear-gradient" x1="54.8" y1="11.76" x2="71.53" y2="53.9" gradientUnits="userSpaceOnUse"><stop offset="0" stop-color="#f7d716"/><stop offset="1" stop-color="#eb5927"/></linearGradient><linearGradient id="linear-gradient-2" x1="57.73" y1="7.09" x2="36.33" y2="58.13" gradientUnits="userSpaceOnUse"><stop offset="0" stop-color="#28bdbb"/><stop offset="1" stop-color="#163c66"/></linearGradient><linearGradient id="linear-gradient-3" x1="50" y1="62.22" x2="50" y2="83.85" xlink:href="#linear-gradient-2"/></defs><path class="cls-1" d="M76,40.16a8.35,8.35,0,0,0-2.27-4.73c-.91-.91-2-1.68-2.92-2.49a23.46,23.46,0,0,0,1.47-1.85c2.32-3.59,2.21-7.31.46-11a19.31,19.31,0,0,0-7.36-8,25.12,25.12,0,0,0-7-3v.58c0,2.6,0,5.2,0,7.8a.73.73,0,0,0,.43.74,15.86,15.86,0,0,1,4.91,4,6.31,6.31,0,0,1,1.38,4.37,3.62,3.62,0,0,1-3.49,3.13c-1.76.13-3.52.09-5.29.12,0,0,0,0-.08-.06v8.05c.89,0,1.77,0,2.66,0,1.67,0,3.37-.2,5,.34a4.08,4.08,0,0,1,3.17,3.31,4.72,4.72,0,0,1-1.72,4.45,6.16,6.16,0,0,1-4.1,1.43c-1.64,0-3.29,0-5,0V52.5a18.57,18.57,0,0,0,4.62,2.19,10.18,10.18,0,0,0,5.36.49,12.5,12.5,0,0,0,7.11-4.73A12.75,12.75,0,0,0,76,40.16Z"/><path class="cls-2" d="M49.79,45.09a19.12,19.12,0,0,0,6.46,7.41,18.73,18.73,0,0,0,4.49,2.14c-3.48-2.21-4.49-5-4.49-7.36,0-.55,0,0,0,0V37.74h0v-8h0V8.49c-3.67-1.11-9.91,0-10.7.18a24.77,24.77,0,0,0-15,10.07c-4.38,6.43-5.93,13.47-4.06,21.09A20.51,20.51,0,0,0,37.69,54a20,20,0,0,0,11.22,2,21,21,0,0,0,5.84-1.48A40.94,40.94,0,0,1,47.67,47a11.22,11.22,0,0,1-9.89-4.3,13.79,13.79,0,0,1-3.05-8.19,17.48,17.48,0,0,1,2.48-10.26c2.25-3.86,5.9-5.84,10.27-6.82,0,5.9,0,11.8,0,17.69A21.56,21.56,0,0,0,49.79,45.09Z"/><path class="cls-3" d="M29,92a2.85,2.85,0,0,1-2.06-.73,2.89,2.89,0,0,1-.77-2.15V87.49A2.61,2.61,0,0,1,29,84.6a2.4,2.4,0,0,1,2.65,2.62v0h-.85v-.08a2,2,0,0,0-.44-1.31A1.71,1.71,0,0,0,29,85.37a1.88,1.88,0,0,0-1.44.55A2.21,2.21,0,0,0,27,87.47v1.67a2.22,2.22,0,0,0,.52,1.55,1.89,1.89,0,0,0,1.44.55,1.65,1.65,0,0,0,1.35-.52,2,2,0,0,0,.44-1.31v-.16h.86v.14A2.41,2.41,0,0,1,29,92Z"/><path class="cls-3" d="M33,91.85V84.74h.82v2.94h.14a1.38,1.38,0,0,1,.32-.42,1.61,1.61,0,0,1,.54-.34,2.6,2.6,0,0,1,.86-.13,2.12,2.12,0,0,1,1,.24,1.84,1.84,0,0,1,.72.69,2.14,2.14,0,0,1,.27,1.12v3h-.81V88.9a1.4,1.4,0,0,0-.38-1.07,1.45,1.45,0,0,0-1-.34,1.59,1.59,0,0,0-1.19.47,1.9,1.9,0,0,0-.46,1.39v2.5Z"/><path class="cls-3" d="M41.55,92a2.74,2.74,0,0,1-1.34-.32,2.29,2.29,0,0,1-.9-.9A2.77,2.77,0,0,1,39,89.43v-.12A2.65,2.65,0,0,1,39.31,88a2.18,2.18,0,0,1,.88-.9,2.76,2.76,0,0,1,2.56,0,2.16,2.16,0,0,1,.86.86,2.62,2.62,0,0,1,.31,1.31v.36H39.8a1.7,1.7,0,0,0,.53,1.25,1.79,1.79,0,0,0,1.24.45,1.49,1.49,0,0,0,1-.29,2,2,0,0,0,.54-.7l.7.33a2.94,2.94,0,0,1-.43.63,2.17,2.17,0,0,1-.71.53A2.75,2.75,0,0,1,41.55,92Zm-1.74-3.08H43.1a1.49,1.49,0,0,0-.49-1.08,1.61,1.61,0,0,0-1.12-.39,1.68,1.68,0,0,0-1.13.39A1.71,1.71,0,0,0,39.81,88.91Z"/><path class="cls-3" d="M45.32,91.84v-5h.79v.62h.15a1.36,1.36,0,0,1,.47-.49,1.64,1.64,0,0,1,.93-.22,1.67,1.67,0,0,1,1,.25,1.56,1.56,0,0,1,.53.62h.14a1.6,1.6,0,0,1,.54-.62,1.64,1.64,0,0,1,1-.26,1.83,1.83,0,0,1,.89.21,1.46,1.46,0,0,1,.6.58,1.76,1.76,0,0,1,.23.91v3.36h-.82V88.54a1.1,1.1,0,0,0-.29-.79,1.15,1.15,0,0,0-.83-.29,1.23,1.23,0,0,0-.91.36,1.38,1.38,0,0,0-.35,1v3h-.82v-3.3a1.06,1.06,0,0,0-.29-.78,1.11,1.11,0,0,0-.83-.29,1.26,1.26,0,0,0-.91.35,1.38,1.38,0,0,0-.35,1v3Z"/><path class="cls-3" d="M56,91.83a.9.9,0,0,1-.67-.24.88.88,0,0,1-.23-.64V87.56H53.61v-.7h1.51V85.09h.82v1.77h1.65v.7H55.94v3.27a.27.27,0,0,0,.3.31h1.13v.7Z"/><path class="cls-3" d="M61.06,92a2.63,2.63,0,0,1-1.34-.32,2.2,2.2,0,0,1-.9-.89,2.68,2.68,0,0,1-.32-1.34v-.13a2.7,2.7,0,0,1,.32-1.35,2.31,2.31,0,0,1,.88-.9,2.64,2.64,0,0,1,1.3-.32,2.55,2.55,0,0,1,1.26.3,2.1,2.1,0,0,1,.86.86,2.62,2.62,0,0,1,.31,1.31v.36H59.31a1.7,1.7,0,0,0,.53,1.25,1.79,1.79,0,0,0,1.24.45,1.55,1.55,0,0,0,1-.29,2,2,0,0,0,.54-.71l.7.34a2.94,2.94,0,0,1-.43.63,2.17,2.17,0,0,1-.71.53A2.6,2.6,0,0,1,61.06,92Zm-1.74-3.07h3.29a1.45,1.45,0,0,0-.49-1.07A1.61,1.61,0,0,0,61,87.42a1.63,1.63,0,0,0-1.13.39A1.71,1.71,0,0,0,59.32,88.89Z"/><path class="cls-3" d="M67.17,92a2.86,2.86,0,0,1-1.32-.31,2.31,2.31,0,0,1-.92-.89,2.72,2.72,0,0,1-.33-1.37v-.11a2.71,2.71,0,0,1,.33-1.38,2.23,2.23,0,0,1,.92-.88,2.73,2.73,0,0,1,1.31-.32A2.61,2.61,0,0,1,68.4,87a2,2,0,0,1,.8.7,2.21,2.21,0,0,1,.38.93l-.79.16a1.82,1.82,0,0,0-.25-.67,1.3,1.3,0,0,0-.53-.48,1.64,1.64,0,0,0-.83-.18,1.83,1.83,0,0,0-.91.22,1.68,1.68,0,0,0-.63.64,2.08,2.08,0,0,0-.23,1v.09a1.94,1.94,0,0,0,.24,1,1.55,1.55,0,0,0,.63.64,1.77,1.77,0,0,0,.9.22,1.61,1.61,0,0,0,1.15-.38,1.71,1.71,0,0,0,.49-1l.81.17a2.78,2.78,0,0,1-.42.93,2.22,2.22,0,0,1-.81.7A2.6,2.6,0,0,1,67.17,92Z"/><path class="cls-3" d="M71,91.81V84.7h.82v2.93h.14a1.38,1.38,0,0,1,.32-.42,1.71,1.71,0,0,1,.55-.33,2.57,2.57,0,0,1,1.87.1,1.88,1.88,0,0,1,.71.69,2.2,2.2,0,0,1,.27,1.13v3h-.82V88.86a1.39,1.39,0,0,0-.38-1.08,1.49,1.49,0,0,0-1-.33,1.57,1.57,0,0,0-1.19.47,1.88,1.88,0,0,0-.46,1.39v2.5Z"/><path class="cls-4" d="M23.17,79.61V74.39H17.69v5.22H15.31V68.32c1.83-2.34,9.28-2,10,.63a8.79,8.79,0,0,1,.29,2.19v8.47ZM23,69.39c-.21-1.18-1.55-1.79-2.89-1.79a7.84,7.84,0,0,0-2.43.37v5.52h5.48V71.14A11.84,11.84,0,0,0,23,69.39Z"/><path class="cls-4" d="M29.59,79.61H27.21V71l2,.26a9,9,0,0,1,3.42-.59c2.37,0,4.77.75,5.14,2.22A9.56,9.56,0,0,1,38,75.22v4.39H35.66V75.22a11,11,0,0,0-.14-1.89c-.2-1.18-1.54-1.81-2.88-1.81a6.77,6.77,0,0,0-3.05.65v7.44Z"/><path class="cls-4" d="M45.27,68.54v-.22c.9-1.12,2.89-1.59,5.08-1.59s4.43.59,4.78,1.85a4.62,4.62,0,0,1,.18,1.22,2.54,2.54,0,0,1-2,2.68c2.23.65,2.7,1.83,2.7,3.49a6.76,6.76,0,0,1-.22,1.61c-.39,1.5-2.77,2.25-5.14,2.25s-4.78-.77-5.16-2.29a9.19,9.19,0,0,1-.27-2.3Zm5.14-.94a8.5,8.5,0,0,0-2.76.37v4.16h3.19a2.2,2.2,0,0,0,2.44-2.33,1.9,1.9,0,0,0-1.93-2.16A6.79,6.79,0,0,0,50.41,67.6ZM50.27,73H47.65v2.23a10.94,10.94,0,0,0,.14,1.87C48,78.35,49.34,79,50.7,79a2.68,2.68,0,0,0,3-3c0-1.93-1-3-3-3h-.43Z"/><path class="cls-4" d="M59.93,69c-.18.83-2.54.81-2.74,0a3.34,3.34,0,0,1,0-1.26c.2-.8,2.54-.8,2.74,0A2.44,2.44,0,0,1,59.93,69ZM57.37,79.61V70.85l2.38.33v8.43Z"/><path class="cls-4" d="M63.78,79.61H61.4V71l2,.26a8.87,8.87,0,0,1,3.41-.59c2.38,0,4.78.75,5.14,2.22a9.55,9.55,0,0,1,.27,2.33v4.39H69.85V75.22a11,11,0,0,0-.14-1.89c-.21-1.18-1.55-1.81-2.89-1.81a6.72,6.72,0,0,0-3,.65v7.44Z"/><path class="cls-4" d="M76.24,79.61H73.86V67l2.38.31v3.86a9.53,9.53,0,0,1,3.05-.45c2.37,0,4.77.75,5.14,2.22a9.56,9.56,0,0,1,.26,2.33v4.39H82.31V75.22a11,11,0,0,0-.14-1.89c-.2-1.18-1.54-1.81-2.88-1.81a6.77,6.77,0,0,0-3.05.65v7.44Z"/><path class="cls-5" d="M23.17,79.61V74.39H17.69v5.22H15.31V68.32c1.83-2.34,9.28-2,10,.63a8.79,8.79,0,0,1,.29,2.19v8.47ZM23,69.39c-.21-1.18-1.55-1.79-2.89-1.79a7.84,7.84,0,0,0-2.43.37v5.52h5.48V71.14A11.84,11.84,0,0,0,23,69.39Z"/><path class="cls-5" d="M29.59,79.61H27.21V71l2,.26a9,9,0,0,1,3.42-.59c2.37,0,4.77.75,5.14,2.22A9.56,9.56,0,0,1,38,75.22v4.39H35.66V75.22a11,11,0,0,0-.14-1.89c-.2-1.18-1.54-1.81-2.88-1.81a6.77,6.77,0,0,0-3.05.65v7.44Z"/><path class="cls-5" d="M45.27,68.54v-.22c.9-1.12,2.89-1.59,5.08-1.59s4.43.59,4.78,1.85a4.62,4.62,0,0,1,.18,1.22,2.54,2.54,0,0,1-2,2.68c2.23.65,2.7,1.83,2.7,3.49a6.76,6.76,0,0,1-.22,1.61c-.39,1.5-2.77,2.25-5.14,2.25s-4.78-.77-5.16-2.29a9.19,9.19,0,0,1-.27-2.3Zm5.14-.94a8.5,8.5,0,0,0-2.76.37v4.16h3.19a2.2,2.2,0,0,0,2.44-2.33,1.9,1.9,0,0,0-1.93-2.16A6.79,6.79,0,0,0,50.41,67.6ZM50.27,73H47.65v2.23a10.94,10.94,0,0,0,.14,1.87C48,78.35,49.34,79,50.7,79a2.68,2.68,0,0,0,3-3c0-1.93-1-3-3-3h-.43Z"/><path class="cls-5" d="M59.93,69c-.18.83-2.54.81-2.74,0a3.34,3.34,0,0,1,0-1.26c.2-.8,2.54-.8,2.74,0A2.44,2.44,0,0,1,59.93,69ZM57.37,79.61V70.85l2.38.33v8.43Z"/><path class="cls-5" d="M63.78,79.61H61.4V71l2,.26a8.87,8.87,0,0,1,3.41-.59c2.38,0,4.78.75,5.14,2.22a9.55,9.55,0,0,1,.27,2.33v4.39H69.85V75.22a11,11,0,0,0-.14-1.89c-.21-1.18-1.55-1.81-2.89-1.81a6.72,6.72,0,0,0-3,.65v7.44Z"/><path class="cls-5" d="M76.24,79.61H73.86V67l2.38.31v3.86a9.53,9.53,0,0,1,3.05-.45c2.37,0,4.77.75,5.14,2.22a9.56,9.56,0,0,1,.26,2.33v4.39H82.31V75.22a11,11,0,0,0-.14-1.89c-.2-1.18-1.54-1.81-2.88-1.81a6.77,6.77,0,0,0-3.05.65v7.44Z"/></svg>