<svg id="Layer_1" data-name="Layer 1" xmlns="http://www.w3.org/2000/svg" xmlns:xlink="http://www.w3.org/1999/xlink" viewBox="0 0 500 200"><defs><style>.cls-1{fill:url(#linear-gradient);}.cls-2{fill:url(#linear-gradient-2);}.cls-3{fill:#58595b;}.cls-4{fill:#f7941d;}.cls-5{fill:url(#linear-gradient-3);}.cls-6{fill:#231f20;}</style><linearGradient id="linear-gradient" x1="105.08" y1="37.81" x2="156.34" y2="166.99" gradientUnits="userSpaceOnUse"><stop offset="0" stop-color="#f7d716"/><stop offset="1" stop-color="#eb5927"/></linearGradient><linearGradient id="linear-gradient-2" x1="114.06" y1="23.51" x2="48.45" y2="179.95" gradientUnits="userSpaceOnUse"><stop offset="0" stop-color="#28bdbb"/><stop offset="1" stop-color="#163c66"/></linearGradient><linearGradient id="linear-gradient-3" x1="312.41" y1="37.11" x2="312.41" y2="103.43" xlink:href="#linear-gradient-2"/></defs><path class="cls-1" d="M170.17,124.86a25.5,25.5,0,0,0-7-14.49c-2.78-2.79-6-5.14-8.93-7.62a70.73,70.73,0,0,0,4.48-5.69c7.12-11,6.77-22.4,1.41-33.87-4.9-10.49-13-18.19-22.55-24.42a77.27,77.27,0,0,0-21.51-9.28v1.78c0,8,0,15.94,0,23.91a2.2,2.2,0,0,0,1.33,2.25c5.66,3.24,11,6.92,15,12.18A19.37,19.37,0,0,1,136.66,83c-.31,4.9-4.79,9.18-10.68,9.61-5.39.38-10.81.26-16.21.36-.08,0-.16-.09-.26-.18v24.67c2.74,0,5.44,0,8.15,0,5.13.12,10.32-.62,15.37,1s8.92,4.64,9.73,10.15a14.45,14.45,0,0,1-5.29,13.62,19,19,0,0,1-12.57,4.41c-5,0-10.07,0-15.39,0v16a56.79,56.79,0,0,0,14.17,6.72c5.32,1.68,10.76,2.77,16.43,1.51,9.15-2,16.11-7.38,21.8-14.51A39.15,39.15,0,0,0,170.17,124.86Z"/><path class="cls-2" d="M89.72,140a58.5,58.5,0,0,0,19.79,22.69s7.51,5,13.76,6.57c-10.66-6.76-13.76-15.35-13.76-22.57,0-1.68,0,0,0,0V117.45h0V92.78l-.05,0V27.81c-11.25-3.42-30.37-.07-32.8.55C57.7,33.18,42,42.91,30.84,59.22,17.39,78.93,12.65,100.51,18.4,123.86c4.8,19.5,16,34.28,34.22,43.29A61.67,61.67,0,0,0,87,173.35a65.51,65.51,0,0,0,17.89-4.56c-8.68-6.58-15.13-14.7-21.67-22.89-13,1-22.7-4.23-30.33-13.18-6.13-7.19-8.66-15.91-9.33-25.09a53.56,53.56,0,0,1,7.57-31.47C58,64.35,69.22,58.27,82.62,55.27c0,18.07,0,36.15,0,54.22A66,66,0,0,0,89.72,140Z"/><path class="cls-3" d="M203.57,155.31V142.24h5.09a4.73,4.73,0,0,1,2.13.46,3.63,3.63,0,0,1,1.5,1.29,3.7,3.7,0,0,1,.55,2v.24a3.66,3.66,0,0,1-.56,2,3.62,3.62,0,0,1-1.51,1.3,4.82,4.82,0,0,1-2.1.45h-3.5v5.27Zm1.59-6.69h3.32a3,3,0,0,0,2-.63,2.18,2.18,0,0,0,.74-1.77V146a2.2,2.2,0,0,0-.73-1.77,3.06,3.06,0,0,0-2-.62h-3.32Z"/><path class="cls-3" d="M220.07,155.29l0-13.07h1.6V148h6.23v-5.81h1.59l0,13.07h-1.6v-5.84h-6.23v5.84Z"/><path class="cls-3" d="M242.33,155.53a4.81,4.81,0,0,1-5.21-5.3v-3a5.22,5.22,0,1,1,10.42,0v3a5.15,5.15,0,0,1-1.41,3.95A5.23,5.23,0,0,1,242.33,155.53Zm0-1.4a3.5,3.5,0,0,0,2.68-1,4,4,0,0,0,.94-2.83v-3.11a4,4,0,0,0-.95-2.83,3.53,3.53,0,0,0-2.68-1,3.45,3.45,0,0,0-2.66,1,4,4,0,0,0-.95,2.83v3.1a3.94,3.94,0,0,0,.95,2.83A3.45,3.45,0,0,0,242.33,154.13Z"/><path class="cls-3" d="M259.76,155.51a6.42,6.42,0,0,1-2.58-.5,4.06,4.06,0,0,1-1.8-1.52,4.69,4.69,0,0,1-.65-2.55v-.39h1.57v.4a2.94,2.94,0,0,0,1,2.41,3.81,3.81,0,0,0,2.49.8,3.62,3.62,0,0,0,2.37-.7,2.17,2.17,0,0,0,.82-1.74,1.72,1.72,0,0,0-.37-1.16,2.78,2.78,0,0,0-1-.69,10.6,10.6,0,0,0-1.55-.48l-1-.24a10.63,10.63,0,0,1-2.05-.73,3.45,3.45,0,0,1-1.4-1.13,3,3,0,0,1-.51-1.8,3.25,3.25,0,0,1,.56-1.9,3.53,3.53,0,0,1,1.58-1.24,5.89,5.89,0,0,1,2.34-.43,6.18,6.18,0,0,1,2.42.45,3.86,3.86,0,0,1,1.69,1.35,3.81,3.81,0,0,1,.62,2.23v.78h-1.57v-.78a2.59,2.59,0,0,0-.41-1.53,2.45,2.45,0,0,0-1.13-.86,4.3,4.3,0,0,0-1.62-.28,3.46,3.46,0,0,0-2.1.58,1.84,1.84,0,0,0-.8,1.61,1.72,1.72,0,0,0,.34,1.12,2.41,2.41,0,0,0,1,.7,9.49,9.49,0,0,0,1.5.48l1,.24a10,10,0,0,1,2.08.66A3.69,3.69,0,0,1,264,149.8a3,3,0,0,1,.56,1.87,3.49,3.49,0,0,1-.59,2,3.83,3.83,0,0,1-1.66,1.34A6.16,6.16,0,0,1,259.76,155.51Z"/><path class="cls-3" d="M272,155.23l0-13.07H277a4.77,4.77,0,0,1,2.14.46,3.49,3.49,0,0,1,2,3.33v.24a3.65,3.65,0,0,1-.55,2,3.74,3.74,0,0,1-1.51,1.3A4.87,4.87,0,0,1,277,150h-3.49v5.27Zm1.58-6.69h3.33a3,3,0,0,0,2-.63,2.16,2.16,0,0,0,.74-1.76V146a2.23,2.23,0,0,0-.73-1.77,3.08,3.08,0,0,0-2-.62h-3.32Z"/><path class="cls-3" d="M288.44,155.21V142.14H290V148h6.23v-5.81h1.6V155.2h-1.59v-5.84H290v5.84Z"/><path class="cls-3" d="M305,155.19l4.09-13.08h2.81L316,155.18h-1.65l-1-3.3H307.7l-1,3.3Zm3.07-4.72h4.84l-2.28-7.4h-.27Z"/><path class="cls-3" d="M325.23,155.17V143.51H321V142.1h10.14v1.42h-4.28l0,11.66Z"/><path class="cls-3" d="M338.28,155.16l0-13.08h8.19v1.42h-6.59v4.37h6.05v1.42h-6.06v4.45h6.69v1.42Z"/><path class="cls-3" d="M367.77,155.38a6.27,6.27,0,0,1-2.59-.5,3.92,3.92,0,0,1-1.79-1.52,4.6,4.6,0,0,1-.66-2.55v-.39h1.57v.39a2.94,2.94,0,0,0,1,2.42,3.76,3.76,0,0,0,2.48.79,3.61,3.61,0,0,0,2.38-.69,2.2,2.2,0,0,0,.81-1.74,1.7,1.7,0,0,0-.37-1.16,2.72,2.72,0,0,0-1-.7,9.55,9.55,0,0,0-1.55-.47l-1-.25a10.89,10.89,0,0,1-2.05-.72,3.61,3.61,0,0,1-1.4-1.13,3,3,0,0,1-.5-1.8,3.21,3.21,0,0,1,.55-1.91,3.57,3.57,0,0,1,1.58-1.23,5.92,5.92,0,0,1,2.34-.44,6,6,0,0,1,2.42.46,3.58,3.58,0,0,1,2.31,3.57v.79h-1.57v-.78a2.65,2.65,0,0,0-.41-1.54,2.49,2.49,0,0,0-1.12-.86,4.6,4.6,0,0,0-1.63-.27,3.53,3.53,0,0,0-2.1.57,1.88,1.88,0,0,0-.8,1.62,1.8,1.8,0,0,0,.34,1.12,2.47,2.47,0,0,0,1,.7,8.92,8.92,0,0,0,1.5.47l1,.24a10.37,10.37,0,0,1,2.08.66,3.8,3.8,0,0,1,1.48,1.14,3.06,3.06,0,0,1,.55,1.88,3.53,3.53,0,0,1-.59,2,3.85,3.85,0,0,1-1.66,1.34A6.24,6.24,0,0,1,367.77,155.38Z"/><path class="cls-3" d="M384.92,155.36a4.8,4.8,0,0,1-5.21-5.3v-3a5.23,5.23,0,1,1,10.43,0v3a4.81,4.81,0,0,1-5.21,5.31Zm0-1.4a3.48,3.48,0,0,0,2.68-1,4,4,0,0,0,1-2.83V147a4,4,0,0,0-.95-2.83,3.48,3.48,0,0,0-2.68-1,3.43,3.43,0,0,0-2.65,1,4,4,0,0,0-.95,2.83v3.1a4,4,0,0,0,1,2.83A3.42,3.42,0,0,0,384.91,154Z"/><path class="cls-3" d="M397.77,155.09l0-13.08h1.6v11.66h6.72v1.42Z"/><path class="cls-3" d="M417.79,155.33a6.06,6.06,0,0,1-2.58-.52,3.81,3.81,0,0,1-1.71-1.56,4.91,4.91,0,0,1-.61-2.55V142h1.57v8.73a3.1,3.1,0,0,0,.88,2.4,3.47,3.47,0,0,0,2.45.81,3.53,3.53,0,0,0,2.45-.81,3.13,3.13,0,0,0,.87-2.41V142h1.59v8.71a5,5,0,0,1-.6,2.55,3.88,3.88,0,0,1-1.72,1.56A6.14,6.14,0,0,1,417.79,155.33Z"/><path class="cls-3" d="M434.09,155l0-11.65H429.8V142h10.14v1.42h-4.27V155Z"/><path class="cls-3" d="M447.14,155l0-13.08h1.6V155Z"/><path class="cls-3" d="M461.6,155.27a4.79,4.79,0,0,1-5.21-5.29v-3a5.26,5.26,0,0,1,1.41-4,6,6,0,0,1,7.6,0,5.24,5.24,0,0,1,1.42,3.95v3a4.8,4.8,0,0,1-5.21,5.31Zm0-1.4a3.48,3.48,0,0,0,2.68-1,4,4,0,0,0,1-2.83v-3.1a4,4,0,0,0-.95-2.83,4,4,0,0,0-5.33,0,4,4,0,0,0-.95,2.83V150a4,4,0,0,0,1,2.83A3.39,3.39,0,0,0,461.59,153.87Z"/><path class="cls-3" d="M474.45,155l0-13.08h3.1L482.18,154h.24V141.91H484V155h-3.09l-4.63-12.1H476V155Z"/><path class="cls-4" d="M226.1,90.42v-16H209.29v16H202V55.8c5.6-7.17,28.46-6.23,30.51,1.93a28.23,28.23,0,0,1,.88,6.72v26Zm-.5-31.32c-.62-3.62-4.73-5.48-8.84-5.48a23.65,23.65,0,0,0-7.47,1.12V71.68H226.1V64.45A35.25,35.25,0,0,0,225.6,59.1Z"/><path class="cls-4" d="M247.19,90.42H239.9V64l6.16.82A27.47,27.47,0,0,1,256.53,63c7.28,0,14.63,2.3,15.75,6.79a29,29,0,0,1,.81,7.16V90.42h-7.28V77a33.26,33.26,0,0,0-.44-5.79c-.62-3.61-4.73-5.55-8.84-5.55a20.45,20.45,0,0,0-9.34,2V90.42Z"/><path class="cls-4" d="M297.75,56.48V55.8c2.74-3.43,8.85-4.86,15.57-4.86S326.9,52.74,328,56.6a14.14,14.14,0,0,1,.56,3.74c0,4-1.44,6.48-6,8.22,6.85,2,8.28,5.61,8.28,10.71a20.54,20.54,0,0,1-.68,4.92c-1.19,4.61-8.47,6.92-15.76,6.92s-14.64-2.37-15.82-7a27.72,27.72,0,0,1-.81-7Zm15.76-2.86A25.72,25.72,0,0,0,305,54.74V67.5h9.77c5-.19,7.48-2.86,7.48-7.16,0-4.11-1.75-6-5.92-6.6A20.89,20.89,0,0,0,313.51,53.62Zm-.44,16.56h-8V77a33.13,33.13,0,0,0,.43,5.73c.69,3.8,4.74,5.67,8.91,5.67,6,0,9.22-3.12,9.22-9.16s-3.06-9.09-9.22-9.09h-1.31Z"/><path class="cls-4" d="M344.11,57.73c-.56,2.55-7.79,2.49-8.41.12a10,10,0,0,1,0-3.86c.62-2.43,7.79-2.43,8.41.06A7.4,7.4,0,0,1,344.11,57.73Zm-7.85,32.69V63.58l7.29,1V90.42Z"/><path class="cls-4" d="M357.3,90.42H350V64l6.17.82A27.39,27.39,0,0,1,366.64,63c7.29,0,14.63,2.3,15.75,6.79A28.5,28.5,0,0,1,383.2,77V90.42h-7.28V77a33.26,33.26,0,0,0-.44-5.79c-.62-3.61-4.73-5.55-8.84-5.55a20.45,20.45,0,0,0-9.34,2V90.42Z"/><path class="cls-4" d="M396.92,90.42h-7.28V51.62l7.28.94V64.39A29.59,29.59,0,0,1,406.27,63c7.28,0,14.63,2.3,15.75,6.79a29,29,0,0,1,.81,7.16V90.42h-7.29V77a33.31,33.31,0,0,0-.43-5.79c-.63-3.61-4.74-5.55-8.84-5.55a20.49,20.49,0,0,0-9.35,2V90.42Z"/><path class="cls-5" d="M226.1,90.42v-16H209.29v16H202V55.8c5.6-7.17,28.46-6.23,30.51,1.93a28.23,28.23,0,0,1,.88,6.72v26Zm-.5-31.32c-.62-3.62-4.73-5.48-8.84-5.48a23.65,23.65,0,0,0-7.47,1.12V71.68H226.1V64.45A35.25,35.25,0,0,0,225.6,59.1Z"/><path class="cls-5" d="M247.19,90.42H239.9V64l6.16.82A27.47,27.47,0,0,1,256.53,63c7.28,0,14.63,2.3,15.75,6.79a29,29,0,0,1,.81,7.16V90.42h-7.28V77a33.26,33.26,0,0,0-.44-5.79c-.62-3.61-4.73-5.55-8.84-5.55a20.45,20.45,0,0,0-9.34,2V90.42Z"/><path class="cls-5" d="M297.75,56.48V55.8c2.74-3.43,8.85-4.86,15.57-4.86S326.9,52.74,328,56.6a14.14,14.14,0,0,1,.56,3.74c0,4-1.44,6.48-6,8.22,6.85,2,8.28,5.61,8.28,10.71a20.54,20.54,0,0,1-.68,4.92c-1.19,4.61-8.47,6.92-15.76,6.92s-14.64-2.37-15.82-7a27.72,27.72,0,0,1-.81-7Zm15.76-2.86A25.72,25.72,0,0,0,305,54.74V67.5h9.77c5-.19,7.48-2.86,7.48-7.16,0-4.11-1.75-6-5.92-6.6A20.89,20.89,0,0,0,313.51,53.62Zm-.44,16.56h-8V77a33.13,33.13,0,0,0,.43,5.73c.69,3.8,4.74,5.67,8.91,5.67,6,0,9.22-3.12,9.22-9.16s-3.06-9.09-9.22-9.09h-1.31Z"/><path class="cls-5" d="M344.11,57.73c-.56,2.55-7.79,2.49-8.41.12a10,10,0,0,1,0-3.86c.62-2.43,7.79-2.43,8.41.06A7.4,7.4,0,0,1,344.11,57.73Zm-7.85,32.69V63.58l7.29,1V90.42Z"/><path class="cls-5" d="M357.3,90.42H350V64l6.17.82A27.39,27.39,0,0,1,366.64,63c7.29,0,14.63,2.3,15.75,6.79A28.5,28.5,0,0,1,383.2,77V90.42h-7.28V77a33.26,33.26,0,0,0-.44-5.79c-.62-3.61-4.73-5.55-8.84-5.55a20.45,20.45,0,0,0-9.34,2V90.42Z"/><path class="cls-5" d="M396.92,90.42h-7.28V51.62l7.28.94V64.39A29.59,29.59,0,0,1,406.27,63c7.28,0,14.63,2.3,15.75,6.79a29,29,0,0,1,.81,7.16V90.42h-7.29V77a33.31,33.31,0,0,0-.43-5.79c-.63-3.61-4.74-5.55-8.84-5.55a20.49,20.49,0,0,0-9.35,2V90.42Z"/><path class="cls-6" d="M212.61,126.51a8.62,8.62,0,0,1-6.3-2.25Q204,122,204,117.68v-5c0-2.89.78-5.08,2.33-6.59a8.67,8.67,0,0,1,6.3-2.26,7.38,7.38,0,0,1,8.14,8V112H218.1v-.25a6,6,0,0,0-1.35-4,5.19,5.19,0,0,0-4.17-1.57,5.71,5.71,0,0,0-4.39,1.7,6.7,6.7,0,0,0-1.58,4.75v5.11a6.73,6.73,0,0,0,1.58,4.75,5.74,5.74,0,0,0,4.4,1.69,5.16,5.16,0,0,0,4.16-1.58,5.91,5.91,0,0,0,1.34-4v-.5h2.63v.4a7.38,7.38,0,0,1-8.12,8Z"/><path class="cls-6" d="M224.91,126.06l0-21.79h2.5v9h.45a4.33,4.33,0,0,1,1-1.29,5.07,5.07,0,0,1,1.68-1,6.94,6.94,0,0,1,2.61-.41,6.42,6.42,0,0,1,3.12.73,5.57,5.57,0,0,1,2.2,2.11,6.61,6.61,0,0,1,.82,3.44l0,9.22h-2.5l0-9a4.2,4.2,0,0,0-1.15-3.3,4.54,4.54,0,0,0-3.12-1,4.93,4.93,0,0,0-3.66,1.43,5.9,5.9,0,0,0-1.4,4.27v7.66Z"/><path class="cls-6" d="M251.32,126.47a8.4,8.4,0,0,1-4.12-1,6.87,6.87,0,0,1-2.75-2.75,8.28,8.28,0,0,1-1-4.11v-.37a8.34,8.34,0,0,1,1-4.14,6.86,6.86,0,0,1,2.71-2.76,7.93,7.93,0,0,1,4-1,7.82,7.82,0,0,1,3.86.92,6.5,6.5,0,0,1,2.63,2.62,8.18,8.18,0,0,1,.95,4v1.12H246a5.24,5.24,0,0,0,1.62,3.85,5.43,5.43,0,0,0,3.8,1.38,4.56,4.56,0,0,0,3.06-.91,6.05,6.05,0,0,0,1.65-2.15l2.15,1a9,9,0,0,1-1.31,1.93,6.94,6.94,0,0,1-2.18,1.62A7.79,7.79,0,0,1,251.32,126.47ZM246,117h10.06a4.56,4.56,0,0,0-1.47-3.3,5,5,0,0,0-3.44-1.18,5.12,5.12,0,0,0-3.48,1.19A5.2,5.2,0,0,0,246,117Z"/><path class="cls-6" d="M263,126l0-15.23h2.44v1.9h.44a4.49,4.49,0,0,1,1.46-1.5,5.17,5.17,0,0,1,2.85-.69,5,5,0,0,1,2.92.78,4.54,4.54,0,0,1,1.63,1.9h.45a5,5,0,0,1,1.62-1.9,5.2,5.2,0,0,1,3.06-.79,5.77,5.77,0,0,1,2.72.62,4.71,4.71,0,0,1,1.86,1.79,5.49,5.49,0,0,1,.68,2.79V126h-2.5V115.91a3.19,3.19,0,0,0-.91-2.41,3.39,3.39,0,0,0-2.51-.89,3.77,3.77,0,0,0-2.8,1.1,4.22,4.22,0,0,0-1.09,3.14V126h-2.5V115.92a3.19,3.19,0,0,0-.91-2.41,3.39,3.39,0,0,0-2.51-.89,3.77,3.77,0,0,0-2.8,1.1,4.22,4.22,0,0,0-1.09,3.14V126Z"/><path class="cls-6" d="M295.84,126a2.76,2.76,0,0,1-2-.71,2.64,2.64,0,0,1-.72-2v-10.4h-4.65v-2.15h4.66v-5.42h2.5v5.42h5.06v2.15h-5.06v10a.82.82,0,0,0,.92.93H300V126Z"/><path class="cls-6" d="M311.34,126.4a8.45,8.45,0,0,1-4.12-1,6.87,6.87,0,0,1-2.75-2.75,8.28,8.28,0,0,1-1-4.11v-.37a8.34,8.34,0,0,1,1-4.14,6.86,6.86,0,0,1,2.71-2.76,7.93,7.93,0,0,1,4-1,7.82,7.82,0,0,1,3.86.92,6.5,6.5,0,0,1,2.63,2.62,8.19,8.19,0,0,1,1,4V119H306a5.22,5.22,0,0,0,1.62,3.85,5.43,5.43,0,0,0,3.8,1.38,4.61,4.61,0,0,0,3.07-.91,6.14,6.14,0,0,0,1.64-2.15l2.15,1a9,9,0,0,1-1.31,1.93,6.82,6.82,0,0,1-2.18,1.62A7.79,7.79,0,0,1,311.34,126.4ZM306,117h10.06a4.52,4.52,0,0,0-1.47-3.3,5,5,0,0,0-3.44-1.18,5.12,5.12,0,0,0-3.48,1.19A5.25,5.25,0,0,0,306,117Z"/><path class="cls-6" d="M330.13,126.38a8.54,8.54,0,0,1-4-.95,6.94,6.94,0,0,1-2.81-2.72,8.18,8.18,0,0,1-1-4.2v-.34a8.17,8.17,0,0,1,1-4.22,7,7,0,0,1,2.81-2.72,8.47,8.47,0,0,1,4-1,8.25,8.25,0,0,1,3.78.8,6.6,6.6,0,0,1,2.48,2.15,7.22,7.22,0,0,1,1.15,2.86l-2.43.5a5.28,5.28,0,0,0-.75-2,4.2,4.2,0,0,0-1.63-1.49,5.29,5.29,0,0,0-2.56-.56,5.5,5.5,0,0,0-2.77.69,5,5,0,0,0-1.93,2,6.22,6.22,0,0,0-.71,3v.28a6.16,6.16,0,0,0,.72,3.06,4.89,4.89,0,0,0,1.93,2,5.53,5.53,0,0,0,2.77.69,4.92,4.92,0,0,0,3.53-1.19,5.15,5.15,0,0,0,1.5-2.93l2.47.53a8.54,8.54,0,0,1-1.27,2.83,6.51,6.51,0,0,1-2.48,2.15A8.12,8.12,0,0,1,330.13,126.38Z"/><path class="cls-6" d="M341.81,125.93l0-21.8h2.5v9h.44a4.13,4.13,0,0,1,1-1.3,5.31,5.31,0,0,1,1.67-1,7.22,7.22,0,0,1,2.61-.41,6.53,6.53,0,0,1,3.12.73,5.53,5.53,0,0,1,2.2,2.12,6.61,6.61,0,0,1,.83,3.44v9.21h-2.5v-9a4.19,4.19,0,0,0-1.16-3.29,4.5,4.5,0,0,0-3.12-1,4.86,4.86,0,0,0-3.65,1.44,5.85,5.85,0,0,0-1.41,4.27v7.65Z"/></svg>