<svg width="782" height="587" viewBox="0 0 782 587" fill="none" xmlns="http://www.w3.org/2000/svg">
<g opacity="0.65" filter="url(#filter0_b_1355_1422)">
<g opacity="0.45">
<mask id="path-1-inside-1_1355_1422" fill="white">
<path fill-rule="evenodd" clip-rule="evenodd" d="M718.195 20.6187L717.532 19.6273L716.541 20.2895L706.806 26.7912C705.663 26.4586 704.387 26.6145 703.32 27.3272C701.404 28.6071 700.888 31.1983 702.168 33.1148C703.448 35.0313 706.039 35.5472 707.955 34.2673C709.872 32.9873 710.388 30.3961 709.108 28.4797C709.052 28.3963 708.994 28.3156 708.933 28.2376L716.874 22.9345L727.303 38.5498L718.628 44.3437L715.653 46.3302L714.662 46.9924L715.324 47.9838L721.105 56.639C720.133 58.0091 720.051 59.8912 721.039 61.3711C721.095 61.4544 721.153 61.5351 721.213 61.6131L690.602 82.0579L705.625 55.0199L705.978 54.3838L705.574 53.7786L701.932 48.3257L697.145 41.1577C698.116 39.7876 698.199 37.9054 697.21 36.4256C695.93 34.5091 693.339 33.9931 691.423 35.2731C689.506 36.553 688.99 39.1443 690.27 41.0607C691.38 42.722 693.474 43.3309 695.261 42.63L699.949 49.65L703.187 54.4978L686.124 85.207L687.828 86.7775L723.341 63.0595C724.484 63.3921 725.76 63.2362 726.827 62.5236C727.659 61.9678 728.227 61.1649 728.499 60.2773L738.327 58.1997L717.965 93.1507L695.436 106.072L695.036 106.302L694.895 106.74L692.219 115.028L672.764 128.021L663.956 127.064L679.571 100.664C680.843 101.244 682.376 101.172 683.624 100.338C684.698 99.6206 685.333 98.4905 685.457 97.2983L711.543 84.6847C712.887 86.3316 715.288 86.7176 717.091 85.513C719.008 84.2331 719.524 81.6419 718.244 79.7254C716.964 77.8089 714.373 77.2929 712.456 78.5729C711.122 79.4637 710.467 80.9895 710.623 82.481L684.976 94.8821C684.915 94.7697 684.849 94.6591 684.776 94.5507C683.496 92.6342 680.905 92.1182 678.989 93.3982C677.115 94.6493 676.58 97.1532 677.752 99.0552L660.962 127.443L660.02 129.035L661.859 129.235L672.937 130.439L672.945 130.44L693.895 132.572L686.695 144.555C685.397 143.904 683.797 143.95 682.503 144.814C681.673 145.368 681.106 146.169 680.834 147.054L666.618 146.789L661.643 139.34C661.821 139.255 661.994 139.157 662.163 139.044C664.079 137.764 664.595 135.173 663.315 133.257C662.035 131.34 659.444 130.824 657.528 132.104C655.611 133.384 655.095 135.975 656.375 137.892C657.006 138.837 657.957 139.442 658.988 139.658L664.981 148.631L665.327 149.15L665.951 149.161L680.81 149.438C680.926 149.841 681.105 150.234 681.351 150.602C681.618 151.002 681.942 151.341 682.306 151.615L675.623 162.081L660.461 160.646L651.505 147.237L650.423 145.617L649.473 147.318L642.127 160.468L641.771 161.105L642.176 161.712L646.977 168.9L629.131 180.818L620.704 186.446L615.903 179.258L610.606 171.327L636.632 153.945L636.861 153.792L637 153.554L642.387 144.309C643.328 144.412 644.31 144.198 645.158 143.631C647.075 142.351 647.591 139.76 646.311 137.843C645.031 135.927 642.44 135.411 640.523 136.691C638.607 137.971 638.091 140.562 639.371 142.478C639.6 142.822 639.872 143.12 640.174 143.371L635.078 152.115L609.282 169.344L604.647 162.404L623.236 149.988L631.168 144.691L631.364 144.56L631.495 144.365L638.999 133.212C640.082 133.463 641.262 133.283 642.259 132.617C644.176 131.337 644.692 128.746 643.412 126.829C642.132 124.913 639.541 124.397 637.624 125.677C635.708 126.957 635.192 129.548 636.472 131.465C636.608 131.668 636.759 131.856 636.922 132.028L629.648 142.839L621.912 148.005L603.322 160.421L592.228 143.809C593.268 143.044 594.021 142.024 594.457 140.894L617.376 125.587L639.488 122.141L643.188 121.74C643.267 121.898 643.356 122.053 643.456 122.203C644.736 124.12 647.328 124.636 649.244 123.356C650.739 122.357 651.381 120.562 650.985 118.911L661.705 111.751C663.089 112.9 665.115 113.058 666.687 112.008C668.603 110.728 669.119 108.137 667.839 106.221C667.718 106.039 667.585 105.87 667.442 105.715L679.055 84.6763C679.542 84.7826 680.056 84.8028 680.578 84.7226C682.856 84.3725 684.419 82.2421 684.068 79.9643C683.718 77.6865 681.588 76.1237 679.31 76.4738C677.032 76.8239 675.47 78.9543 675.82 81.2321C675.958 82.1321 676.374 82.9205 676.968 83.5233L665.393 104.493C664.288 104.214 663.074 104.385 662.052 105.068C660.48 106.118 659.85 108.05 660.381 109.768L649.786 116.845C648.402 115.542 646.256 115.315 644.609 116.415C643.555 117.119 642.925 118.219 642.784 119.386L639.204 119.774L639.176 119.777L639.149 119.781L616.749 123.272L616.489 123.312L616.27 123.458L594.855 137.761C594.739 136.763 594.391 135.777 593.794 134.885C593.198 133.992 592.421 133.293 591.544 132.803L612.739 118.648L632.671 115.59C632.77 115.82 632.891 116.044 633.035 116.26C634.315 118.176 636.907 118.692 638.823 117.412C640.74 116.132 641.256 113.541 639.976 111.625C638.696 109.708 636.104 109.192 634.188 110.472C633.201 111.131 632.586 112.137 632.396 113.22L612.117 116.331L611.855 116.371L611.635 116.518L588.498 131.971C587.286 131.941 586.056 132.246 584.951 132.914L581.306 127.455L607.331 110.074L606.007 108.091L579.238 125.969L578.99 126.135L577.998 126.797L567.591 133.747C567.495 133.811 567.414 133.89 567.348 133.978L19.7609 499.697C19.6702 499.757 19.6503 499.887 19.7164 499.986L61.4892 562.532C61.5553 562.631 61.6825 562.662 61.7732 562.601L609.542 196.761C609.575 196.744 609.607 196.725 609.639 196.704L620.046 189.754L621.037 189.092L621.285 188.926L630.456 182.801L648.301 170.883L661.71 190.959L662.372 191.951L663.364 191.289L669.788 186.998C671.158 187.969 673.04 188.052 674.52 187.063C676.437 185.783 676.953 183.192 675.673 181.276C674.393 179.359 671.801 178.843 669.885 180.123C668.224 181.233 667.615 183.327 668.316 185.114L663.031 188.644L649.622 168.567L644.564 160.994L650.605 150.182L658.793 162.442L659.108 162.913L659.672 162.967L675.56 164.47L681.045 172.683C679.329 174.012 678.91 176.463 680.134 178.296C681.414 180.212 684.005 180.728 685.922 179.448C687.838 178.169 688.354 175.577 687.074 173.661C686.216 172.376 684.77 171.721 683.332 171.814L677.66 163.322L684.601 152.451C685.469 152.498 686.36 152.274 687.139 151.754C688.964 150.535 689.519 148.127 688.462 146.244L696.899 132.203L696.906 132.19L701.411 124.896C702.485 125.137 703.653 124.954 704.641 124.294C706.558 123.014 707.073 120.423 705.794 118.507C704.514 116.59 701.922 116.074 700.006 117.354C698.089 118.634 697.573 121.225 698.853 123.142C698.996 123.355 699.155 123.552 699.328 123.73L695.262 130.314L676.485 128.403L693.888 116.78L694.233 116.55L694.36 116.155L697.022 107.912L715.578 97.2684L711.102 104.994C710.044 104.773 708.902 104.961 707.932 105.609C706.016 106.889 705.5 109.48 706.78 111.396C708.06 113.313 710.651 113.829 712.567 112.549C714.484 111.269 715 108.678 713.72 106.761C713.565 106.529 713.391 106.318 713.201 106.128L719.865 94.6264L719.866 94.6239L741.74 57.0775L742.115 56.4342L741.701 55.8151L729.948 38.2169L718.195 20.6187ZM728.503 57.8393L738.74 55.6751L728.627 40.5327L719.952 46.3266L717.969 47.6509L722.989 55.1667C724.775 54.4658 726.87 55.0747 727.979 56.7359C728.213 57.0853 728.386 57.4571 728.503 57.8393ZM675.459 67.2842L676.699 65.0756L674.207 65.5275L661.446 67.8418C661.338 67.5665 661.199 67.2985 661.028 67.0425C659.748 65.126 657.157 64.61 655.24 65.89C653.324 67.1699 652.808 69.7611 654.088 71.6776C655.368 73.5941 657.959 74.1101 659.875 72.8301C660.817 72.2014 661.42 71.2562 661.639 70.2301L672.14 68.3257L658.266 93.0469C656.911 92.178 655.116 92.1379 653.692 93.0886C651.776 94.3686 651.26 96.9598 652.54 98.8763C652.751 99.192 652.997 99.4697 653.27 99.7076L631.573 103.638C631.462 103.342 631.316 103.054 631.132 102.779C629.852 100.863 627.261 100.347 625.345 101.627C624.263 102.35 623.627 103.49 623.509 104.691L608.478 106.963L590.72 80.374L604.246 78.1083L610.207 87.3621C609.824 88.5364 609.965 89.8683 610.704 90.9752C611.984 92.8916 614.575 93.4076 616.491 92.1277C618.408 90.8477 618.924 88.2565 617.644 86.34C616.364 84.4236 613.773 83.9076 611.856 85.1875C611.806 85.221 611.757 85.2553 611.709 85.2905L606.806 77.6794L617.478 75.8914C617.502 75.9301 617.527 75.9686 617.553 76.0068C618.541 77.4866 620.311 78.1314 621.949 77.7591L628.392 87.4057L628.639 87.777L629.07 87.8941L640.467 90.9922C641.775 92.806 644.294 93.272 646.169 92.0202C648.001 90.7964 648.553 88.3738 647.479 86.4885L649.848 79.5921L650.054 78.9918L649.672 78.4855L645.523 73.0014C646.059 71.7482 645.971 70.2577 645.158 69.0397C643.878 67.1233 641.286 66.6073 639.37 67.8872C638.395 68.5385 637.782 69.5293 637.584 70.5979L624.973 72.3415C624.858 72.0063 624.699 71.6802 624.493 71.3716C623.213 69.4552 620.622 68.9392 618.705 70.2191C617.535 71.0008 616.887 72.2715 616.851 73.5788L604.626 75.6269L588.508 78.327L586.689 78.6316L587.713 80.165L606.916 108.917L607.337 109.547L608.086 109.434L623.966 107.034C624.034 107.163 624.109 107.29 624.192 107.415C625.472 109.331 628.063 109.847 629.98 108.567C630.901 107.952 631.499 107.033 631.729 106.033L655.647 101.7L656.199 101.6L656.474 101.111L656.721 100.672C657.279 100.575 657.826 100.364 658.327 100.029C659.993 98.9162 660.601 96.8129 659.891 95.0232L675.459 67.2842ZM624.031 76.5828C624.537 76.0573 624.886 75.4181 625.062 74.7363L637.838 72.97C637.94 73.2122 638.066 73.4482 638.217 73.6749C639.484 75.5713 642.034 76.0964 643.945 74.867L647.387 79.4178L645.558 84.7418C644.292 84.1758 642.772 84.253 641.534 85.0801C640.402 85.8356 639.759 87.0478 639.685 88.3085L630.126 85.7102L624.031 76.5828Z"/>
</mask>
<path fill-rule="evenodd" clip-rule="evenodd" d="M718.195 20.6187L717.532 19.6273L716.541 20.2895L706.806 26.7912C705.663 26.4586 704.387 26.6145 703.32 27.3272C701.404 28.6071 700.888 31.1983 702.168 33.1148C703.448 35.0313 706.039 35.5472 707.955 34.2673C709.872 32.9873 710.388 30.3961 709.108 28.4797C709.052 28.3963 708.994 28.3156 708.933 28.2376L716.874 22.9345L727.303 38.5498L718.628 44.3437L715.653 46.3302L714.662 46.9924L715.324 47.9838L721.105 56.639C720.133 58.0091 720.051 59.8912 721.039 61.3711C721.095 61.4544 721.153 61.5351 721.213 61.6131L690.602 82.0579L705.625 55.0199L705.978 54.3838L705.574 53.7786L701.932 48.3257L697.145 41.1577C698.116 39.7876 698.199 37.9054 697.21 36.4256C695.93 34.5091 693.339 33.9931 691.423 35.2731C689.506 36.553 688.99 39.1443 690.27 41.0607C691.38 42.722 693.474 43.3309 695.261 42.63L699.949 49.65L703.187 54.4978L686.124 85.207L687.828 86.7775L723.341 63.0595C724.484 63.3921 725.76 63.2362 726.827 62.5236C727.659 61.9678 728.227 61.1649 728.499 60.2773L738.327 58.1997L717.965 93.1507L695.436 106.072L695.036 106.302L694.895 106.74L692.219 115.028L672.764 128.021L663.956 127.064L679.571 100.664C680.843 101.244 682.376 101.172 683.624 100.338C684.698 99.6206 685.333 98.4905 685.457 97.2983L711.543 84.6847C712.887 86.3316 715.288 86.7176 717.091 85.513C719.008 84.2331 719.524 81.6419 718.244 79.7254C716.964 77.8089 714.373 77.2929 712.456 78.5729C711.122 79.4637 710.467 80.9895 710.623 82.481L684.976 94.8821C684.915 94.7697 684.849 94.6591 684.776 94.5507C683.496 92.6342 680.905 92.1182 678.989 93.3982C677.115 94.6493 676.58 97.1532 677.752 99.0552L660.962 127.443L660.02 129.035L661.859 129.235L672.937 130.439L672.945 130.44L693.895 132.572L686.695 144.555C685.397 143.904 683.797 143.95 682.503 144.814C681.673 145.368 681.106 146.169 680.834 147.054L666.618 146.789L661.643 139.34C661.821 139.255 661.994 139.157 662.163 139.044C664.079 137.764 664.595 135.173 663.315 133.257C662.035 131.34 659.444 130.824 657.528 132.104C655.611 133.384 655.095 135.975 656.375 137.892C657.006 138.837 657.957 139.442 658.988 139.658L664.981 148.631L665.327 149.15L665.951 149.161L680.81 149.438C680.926 149.841 681.105 150.234 681.351 150.602C681.618 151.002 681.942 151.341 682.306 151.615L675.623 162.081L660.461 160.646L651.505 147.237L650.423 145.617L649.473 147.318L642.127 160.468L641.771 161.105L642.176 161.712L646.977 168.9L629.131 180.818L620.704 186.446L615.903 179.258L610.606 171.327L636.632 153.945L636.861 153.792L637 153.554L642.387 144.309C643.328 144.412 644.31 144.198 645.158 143.631C647.075 142.351 647.591 139.76 646.311 137.843C645.031 135.927 642.44 135.411 640.523 136.691C638.607 137.971 638.091 140.562 639.371 142.478C639.6 142.822 639.872 143.12 640.174 143.371L635.078 152.115L609.282 169.344L604.647 162.404L623.236 149.988L631.168 144.691L631.364 144.56L631.495 144.365L638.999 133.212C640.082 133.463 641.262 133.283 642.259 132.617C644.176 131.337 644.692 128.746 643.412 126.829C642.132 124.913 639.541 124.397 637.624 125.677C635.708 126.957 635.192 129.548 636.472 131.465C636.608 131.668 636.759 131.856 636.922 132.028L629.648 142.839L621.912 148.005L603.322 160.421L592.228 143.809C593.268 143.044 594.021 142.024 594.457 140.894L617.376 125.587L639.488 122.141L643.188 121.74C643.267 121.898 643.356 122.053 643.456 122.203C644.736 124.12 647.328 124.636 649.244 123.356C650.739 122.357 651.381 120.562 650.985 118.911L661.705 111.751C663.089 112.9 665.115 113.058 666.687 112.008C668.603 110.728 669.119 108.137 667.839 106.221C667.718 106.039 667.585 105.87 667.442 105.715L679.055 84.6763C679.542 84.7826 680.056 84.8028 680.578 84.7226C682.856 84.3725 684.419 82.2421 684.068 79.9643C683.718 77.6865 681.588 76.1237 679.31 76.4738C677.032 76.8239 675.47 78.9543 675.82 81.2321C675.958 82.1321 676.374 82.9205 676.968 83.5233L665.393 104.493C664.288 104.214 663.074 104.385 662.052 105.068C660.48 106.118 659.85 108.05 660.381 109.768L649.786 116.845C648.402 115.542 646.256 115.315 644.609 116.415C643.555 117.119 642.925 118.219 642.784 119.386L639.204 119.774L639.176 119.777L639.149 119.781L616.749 123.272L616.489 123.312L616.27 123.458L594.855 137.761C594.739 136.763 594.391 135.777 593.794 134.885C593.198 133.992 592.421 133.293 591.544 132.803L612.739 118.648L632.671 115.59C632.77 115.82 632.891 116.044 633.035 116.26C634.315 118.176 636.907 118.692 638.823 117.412C640.74 116.132 641.256 113.541 639.976 111.625C638.696 109.708 636.104 109.192 634.188 110.472C633.201 111.131 632.586 112.137 632.396 113.22L612.117 116.331L611.855 116.371L611.635 116.518L588.498 131.971C587.286 131.941 586.056 132.246 584.951 132.914L581.306 127.455L607.331 110.074L606.007 108.091L579.238 125.969L578.99 126.135L577.998 126.797L567.591 133.747C567.495 133.811 567.414 133.89 567.348 133.978L19.7609 499.697C19.6702 499.757 19.6503 499.887 19.7164 499.986L61.4892 562.532C61.5553 562.631 61.6825 562.662 61.7732 562.601L609.542 196.761C609.575 196.744 609.607 196.725 609.639 196.704L620.046 189.754L621.037 189.092L621.285 188.926L630.456 182.801L648.301 170.883L661.71 190.959L662.372 191.951L663.364 191.289L669.788 186.998C671.158 187.969 673.04 188.052 674.52 187.063C676.437 185.783 676.953 183.192 675.673 181.276C674.393 179.359 671.801 178.843 669.885 180.123C668.224 181.233 667.615 183.327 668.316 185.114L663.031 188.644L649.622 168.567L644.564 160.994L650.605 150.182L658.793 162.442L659.108 162.913L659.672 162.967L675.56 164.47L681.045 172.683C679.329 174.012 678.91 176.463 680.134 178.296C681.414 180.212 684.005 180.728 685.922 179.448C687.838 178.169 688.354 175.577 687.074 173.661C686.216 172.376 684.77 171.721 683.332 171.814L677.66 163.322L684.601 152.451C685.469 152.498 686.36 152.274 687.139 151.754C688.964 150.535 689.519 148.127 688.462 146.244L696.899 132.203L696.906 132.19L701.411 124.896C702.485 125.137 703.653 124.954 704.641 124.294C706.558 123.014 707.073 120.423 705.794 118.507C704.514 116.59 701.922 116.074 700.006 117.354C698.089 118.634 697.573 121.225 698.853 123.142C698.996 123.355 699.155 123.552 699.328 123.73L695.262 130.314L676.485 128.403L693.888 116.78L694.233 116.55L694.36 116.155L697.022 107.912L715.578 97.2684L711.102 104.994C710.044 104.773 708.902 104.961 707.932 105.609C706.016 106.889 705.5 109.48 706.78 111.396C708.06 113.313 710.651 113.829 712.567 112.549C714.484 111.269 715 108.678 713.72 106.761C713.565 106.529 713.391 106.318 713.201 106.128L719.865 94.6264L719.866 94.6239L741.74 57.0775L742.115 56.4342L741.701 55.8151L729.948 38.2169L718.195 20.6187ZM728.503 57.8393L738.74 55.6751L728.627 40.5327L719.952 46.3266L717.969 47.6509L722.989 55.1667C724.775 54.4658 726.87 55.0747 727.979 56.7359C728.213 57.0853 728.386 57.4571 728.503 57.8393ZM675.459 67.2842L676.699 65.0756L674.207 65.5275L661.446 67.8418C661.338 67.5665 661.199 67.2985 661.028 67.0425C659.748 65.126 657.157 64.61 655.24 65.89C653.324 67.1699 652.808 69.7611 654.088 71.6776C655.368 73.5941 657.959 74.1101 659.875 72.8301C660.817 72.2014 661.42 71.2562 661.639 70.2301L672.14 68.3257L658.266 93.0469C656.911 92.178 655.116 92.1379 653.692 93.0886C651.776 94.3686 651.26 96.9598 652.54 98.8763C652.751 99.192 652.997 99.4697 653.27 99.7076L631.573 103.638C631.462 103.342 631.316 103.054 631.132 102.779C629.852 100.863 627.261 100.347 625.345 101.627C624.263 102.35 623.627 103.49 623.509 104.691L608.478 106.963L590.72 80.374L604.246 78.1083L610.207 87.3621C609.824 88.5364 609.965 89.8683 610.704 90.9752C611.984 92.8916 614.575 93.4076 616.491 92.1277C618.408 90.8477 618.924 88.2565 617.644 86.34C616.364 84.4236 613.773 83.9076 611.856 85.1875C611.806 85.221 611.757 85.2553 611.709 85.2905L606.806 77.6794L617.478 75.8914C617.502 75.9301 617.527 75.9686 617.553 76.0068C618.541 77.4866 620.311 78.1314 621.949 77.7591L628.392 87.4057L628.639 87.777L629.07 87.8941L640.467 90.9922C641.775 92.806 644.294 93.272 646.169 92.0202C648.001 90.7964 648.553 88.3738 647.479 86.4885L649.848 79.5921L650.054 78.9918L649.672 78.4855L645.523 73.0014C646.059 71.7482 645.971 70.2577 645.158 69.0397C643.878 67.1233 641.286 66.6073 639.37 67.8872C638.395 68.5385 637.782 69.5293 637.584 70.5979L624.973 72.3415C624.858 72.0063 624.699 71.6802 624.493 71.3716C623.213 69.4552 620.622 68.9392 618.705 70.2191C617.535 71.0008 616.887 72.2715 616.851 73.5788L604.626 75.6269L588.508 78.327L586.689 78.6316L587.713 80.165L606.916 108.917L607.337 109.547L608.086 109.434L623.966 107.034C624.034 107.163 624.109 107.29 624.192 107.415C625.472 109.331 628.063 109.847 629.98 108.567C630.901 107.952 631.499 107.033 631.729 106.033L655.647 101.7L656.199 101.6L656.474 101.111L656.721 100.672C657.279 100.575 657.826 100.364 658.327 100.029C659.993 98.9162 660.601 96.8129 659.891 95.0232L675.459 67.2842ZM624.031 76.5828C624.537 76.0573 624.886 75.4181 625.062 74.7363L637.838 72.97C637.94 73.2122 638.066 73.4482 638.217 73.6749C639.484 75.5713 642.034 76.0964 643.945 74.867L647.387 79.4178L645.558 84.7418C644.292 84.1758 642.772 84.253 641.534 85.0801C640.402 85.8356 639.759 87.0478 639.685 88.3085L630.126 85.7102L624.031 76.5828Z" fill="url(#paint0_linear_1355_1422)"/>
<path d="M717.532 19.6273L718.364 19.0719L717.809 18.2403L716.977 18.7957L717.532 19.6273ZM718.195 20.6187L717.363 21.1741L718.195 20.6187ZM716.541 20.2895L717.096 21.121L716.541 20.2895ZM706.806 26.7912L706.526 27.7513L706.974 27.8815L707.361 27.6228L706.806 26.7912ZM708.933 28.2376L708.378 27.406L707.486 28.002L708.143 28.8502L708.933 28.2376ZM716.874 22.9345L717.705 22.3791L717.15 21.5475L716.318 22.1029L716.874 22.9345ZM727.303 38.5498L727.858 39.3814L728.69 38.826L728.134 37.9944L727.303 38.5498ZM718.628 44.3437L719.183 45.1753L718.628 44.3437ZM715.653 46.3302L716.209 47.1618L715.653 46.3302ZM714.662 46.9924L714.106 46.1608L713.275 46.7162L713.83 47.5478L714.662 46.9924ZM715.324 47.9838L716.156 47.4284L715.324 47.9838ZM721.105 56.639L721.92 57.2173L722.318 56.6559L721.936 56.0836L721.105 56.639ZM721.213 61.6131L721.769 62.4447L722.661 61.8487L722.004 61.0006L721.213 61.6131ZM690.602 82.0579L689.727 81.5722L691.157 82.8895L690.602 82.0579ZM705.625 55.0199L704.751 54.5342L704.751 54.5342L705.625 55.0199ZM705.978 54.3838L706.852 54.8695L707.149 54.3359L706.81 53.8284L705.978 54.3838ZM705.574 53.7786L704.743 54.334L705.574 53.7786ZM701.932 48.3257L702.764 47.7703L701.932 48.3257ZM697.145 41.1577L696.329 40.5794L695.931 41.1408L696.313 41.7131L697.145 41.1577ZM695.261 42.63L696.093 42.0746L695.645 41.405L694.896 41.6991L695.261 42.63ZM699.949 49.65L699.118 50.2054L699.949 49.65ZM703.187 54.4978L704.061 54.9835L704.358 54.45L704.019 53.9424L703.187 54.4978ZM686.124 85.207L685.25 84.7213L684.868 85.4091L685.446 85.9423L686.124 85.207ZM687.828 86.7775L687.151 87.5129L687.729 88.0461L688.384 87.6091L687.828 86.7775ZM723.341 63.0595L723.62 62.0994L723.173 61.9692L722.786 62.228L723.341 63.0595ZM728.499 60.2773L728.292 59.2989L727.715 59.4208L727.543 59.9846L728.499 60.2773ZM738.327 58.1997L739.191 58.7031L740.326 56.755L738.12 57.2213L738.327 58.1997ZM717.965 93.1507L718.462 94.0181L718.694 93.8851L718.829 93.6541L717.965 93.1507ZM695.436 106.072L695.934 106.94L695.934 106.94L695.436 106.072ZM695.036 106.302L694.539 105.434L694.204 105.627L694.085 105.994L695.036 106.302ZM694.895 106.74L695.846 107.048L695.846 107.048L694.895 106.74ZM692.219 115.028L692.774 115.859L693.064 115.666L693.17 115.335L692.219 115.028ZM672.764 128.021L672.656 129.016L673.017 129.055L673.319 128.853L672.764 128.021ZM663.956 127.064L663.095 126.555L662.305 127.891L663.848 128.058L663.956 127.064ZM679.571 100.664L679.986 99.754L679.168 99.3811L678.71 100.155L679.571 100.664ZM685.457 97.2983L685.022 96.398L684.52 96.6405L684.462 97.1947L685.457 97.2983ZM711.543 84.6847L712.318 84.0526L711.819 83.4407L711.108 83.7844L711.543 84.6847ZM710.623 82.481L711.058 83.3813L711.691 83.0755L711.618 82.3769L710.623 82.481ZM684.976 94.8821L684.097 95.3591L684.553 96.1977L685.412 95.7823L684.976 94.8821ZM677.752 99.0552L678.613 99.5643L678.92 99.0446L678.604 98.5306L677.752 99.0552ZM660.962 127.443L661.823 127.952L661.823 127.952L660.962 127.443ZM660.02 129.035L659.159 128.526L658.369 129.862L659.912 130.029L660.02 129.035ZM661.859 129.235L661.751 130.229L661.751 130.229L661.859 129.235ZM672.937 130.439L672.829 131.433L672.832 131.433L672.937 130.439ZM672.945 130.44L672.841 131.434L672.844 131.434L672.945 130.44ZM693.895 132.572L694.752 133.087L695.564 131.737L693.996 131.577L693.895 132.572ZM686.695 144.555L686.247 145.449L687.075 145.864L687.552 145.07L686.695 144.555ZM680.834 147.054L680.815 148.053L681.568 148.067L681.789 147.348L680.834 147.054ZM666.618 146.789L665.787 147.344L666.077 147.779L666.599 147.789L666.618 146.789ZM661.643 139.34L661.211 138.438L660.171 138.937L660.812 139.896L661.643 139.34ZM658.988 139.658L659.82 139.103L659.593 138.763L659.194 138.679L658.988 139.658ZM664.981 148.631L664.15 149.187L664.981 148.631ZM665.327 149.15L664.496 149.705L664.786 150.14L665.309 150.149L665.327 149.15ZM665.951 149.161L665.969 148.161L665.969 148.161L665.951 149.161ZM680.81 149.438L681.771 149.161L681.566 148.452L680.828 148.438L680.81 149.438ZM682.306 151.615L683.149 152.153L683.646 151.374L682.908 150.817L682.306 151.615ZM675.623 162.081L675.529 163.077L676.137 163.134L676.466 162.619L675.623 162.081ZM660.461 160.646L659.629 161.201L659.893 161.597L660.367 161.642L660.461 160.646ZM650.423 145.617L651.255 145.062L650.347 143.703L649.55 145.129L650.423 145.617ZM649.473 147.318L650.346 147.806L650.346 147.806L649.473 147.318ZM642.127 160.468L643 160.956L643 160.956L642.127 160.468ZM641.771 161.105L640.898 160.617L640.6 161.151L640.939 161.66L641.771 161.105ZM642.176 161.712L641.345 162.267L642.176 161.712ZM646.977 168.9L647.532 169.731L648.364 169.176L647.808 168.344L646.977 168.9ZM629.131 180.818L628.576 179.987L629.131 180.818ZM620.704 186.446L619.873 187.002L620.428 187.833L621.26 187.278L620.704 186.446ZM615.903 179.258L616.735 178.703L615.903 179.258ZM610.606 171.327L610.051 170.495L609.219 171.051L609.775 171.882L610.606 171.327ZM636.632 153.945L637.187 154.777L636.632 153.945ZM636.861 153.792L637.416 154.624L637.608 154.495L637.725 154.296L636.861 153.792ZM637 153.554L636.136 153.05L636.136 153.05L637 153.554ZM642.387 144.309L642.497 143.315L641.851 143.244L641.523 143.805L642.387 144.309ZM640.174 143.371L641.038 143.875L641.464 143.144L640.813 142.602L640.174 143.371ZM635.078 152.115L635.634 152.947L635.826 152.819L635.942 152.619L635.078 152.115ZM609.282 169.344L608.45 169.899L609.006 170.731L609.837 170.176L609.282 169.344ZM604.647 162.404L604.091 161.572L603.26 162.128L603.815 162.959L604.647 162.404ZM623.236 149.988L623.792 150.82L623.236 149.988ZM631.168 144.691L631.723 145.523L631.168 144.691ZM631.364 144.56L631.919 145.392L632.083 145.282L632.193 145.119L631.364 144.56ZM631.495 144.365L630.665 143.807L630.665 143.807L631.495 144.365ZM638.999 133.212L639.225 132.238L638.554 132.082L638.169 132.654L638.999 133.212ZM636.922 132.028L637.752 132.586L638.2 131.92L637.646 131.338L636.922 132.028ZM629.648 142.839L630.203 143.67L630.368 143.561L630.478 143.397L629.648 142.839ZM603.322 160.421L602.491 160.976L603.046 161.808L603.878 161.253L603.322 160.421ZM592.228 143.809L591.636 143.003L590.865 143.569L591.396 144.364L592.228 143.809ZM594.457 140.894L593.902 140.062L593.638 140.238L593.524 140.534L594.457 140.894ZM617.376 125.587L617.222 124.599L617.004 124.633L616.82 124.755L617.376 125.587ZM639.488 122.141L639.381 121.147L639.357 121.149L639.334 121.153L639.488 122.141ZM643.188 121.74L644.083 121.295L643.773 120.671L643.08 120.746L643.188 121.74ZM650.985 118.911L650.43 118.079L649.85 118.467L650.013 119.144L650.985 118.911ZM661.705 111.751L662.344 110.982L661.77 110.506L661.15 110.92L661.705 111.751ZM667.442 105.715L666.567 105.231L666.22 105.86L666.705 106.39L667.442 105.715ZM679.055 84.6763L679.268 83.6993L678.54 83.5403L678.179 84.1931L679.055 84.6763ZM680.578 84.7226L680.426 83.7342L680.426 83.7342L680.578 84.7226ZM679.31 76.4738L679.462 77.4622L679.462 77.4622L679.31 76.4738ZM675.82 81.2321L674.831 81.384L674.831 81.384L675.82 81.2321ZM676.968 83.5233L677.843 84.0066L678.204 83.3534L677.68 82.8218L676.968 83.5233ZM665.393 104.493L665.148 105.462L665.896 105.651L666.269 104.976L665.393 104.493ZM660.381 109.768L660.936 110.6L661.556 110.186L661.336 109.473L660.381 109.768ZM649.786 116.845L649.1 117.573L649.679 118.118L650.341 117.676L649.786 116.845ZM642.784 119.386L642.891 120.38L643.681 120.294L643.776 119.506L642.784 119.386ZM639.204 119.774L639.096 118.779L639.096 118.779L639.204 119.774ZM639.176 119.777L639.068 118.782L639.045 118.785L639.022 118.788L639.176 119.777ZM639.149 119.781L639.303 120.769L639.303 120.769L639.149 119.781ZM616.749 123.272L616.903 124.26L616.903 124.26L616.749 123.272ZM616.489 123.312L616.335 122.324L616.117 122.358L615.934 122.48L616.489 123.312ZM616.27 123.458L616.826 124.29L616.27 123.458ZM594.855 137.761L593.862 137.877L594.052 139.5L595.411 138.592L594.855 137.761ZM591.544 132.803L590.989 131.972L589.63 132.879L591.057 133.676L591.544 132.803ZM612.739 118.648L612.588 117.659L612.369 117.693L612.184 117.816L612.739 118.648ZM632.671 115.59L633.589 115.194L633.283 114.485L632.52 114.602L632.671 115.59ZM632.396 113.22L632.547 114.209L633.256 114.1L633.381 113.393L632.396 113.22ZM612.117 116.331L611.965 115.343L611.965 115.343L612.117 116.331ZM611.855 116.371L611.703 115.383L611.484 115.416L611.3 115.539L611.855 116.371ZM588.498 131.971L588.473 132.97L588.79 132.978L589.053 132.802L588.498 131.971ZM584.951 132.914L584.12 133.469L584.651 134.264L585.469 133.769L584.951 132.914ZM581.306 127.455L580.75 126.624L579.919 127.179L580.474 128.011L581.306 127.455ZM607.331 110.074L607.886 110.905L608.718 110.35L608.163 109.518L607.331 110.074ZM606.007 108.091L606.838 107.535L606.283 106.704L605.451 107.259L606.007 108.091ZM579.238 125.969L578.682 125.137L579.238 125.969ZM578.99 126.135L579.545 126.966L578.99 126.135ZM577.998 126.797L577.443 125.965L577.998 126.797ZM567.591 133.747L568.147 134.579L567.591 133.747ZM567.348 133.978L567.903 134.81L568.046 134.715L568.149 134.577L567.348 133.978ZM19.7164 499.986L18.8848 500.541L19.7164 499.986ZM61.4892 562.532L62.3208 561.976L61.4892 562.532ZM61.7732 562.601L62.3286 563.433L61.7732 562.601ZM609.542 196.761L609.084 195.872L609.034 195.898L608.987 195.929L609.542 196.761ZM621.285 188.926L621.84 189.758L621.285 188.926ZM630.456 182.801L629.9 181.969L630.456 182.801ZM648.301 170.883L649.133 170.327L648.577 169.496L647.746 170.051L648.301 170.883ZM662.372 191.951L661.541 192.506L662.096 193.338L662.928 192.782L662.372 191.951ZM669.788 186.998L670.366 186.182L669.805 185.784L669.233 186.166L669.788 186.998ZM668.316 185.114L668.871 185.945L669.541 185.498L669.247 184.749L668.316 185.114ZM663.031 188.644L662.199 189.199L662.755 190.031L663.586 189.475L663.031 188.644ZM644.564 160.994L643.691 160.506L643.393 161.041L643.733 161.549L644.564 160.994ZM650.605 150.182L651.436 149.626L650.529 148.267L649.732 149.694L650.605 150.182ZM658.793 162.442L659.624 161.886L658.793 162.442ZM659.108 162.913L658.276 163.469L658.54 163.864L659.013 163.909L659.108 162.913ZM659.672 162.967L659.766 161.971L659.766 161.971L659.672 162.967ZM675.56 164.47L676.391 163.915L676.127 163.519L675.654 163.475L675.56 164.47ZM681.045 172.683L681.657 173.473L682.394 172.902L681.876 172.127L681.045 172.683ZM683.332 171.814L682.5 172.369L682.82 172.849L683.396 172.812L683.332 171.814ZM677.66 163.322L676.817 162.784L676.466 163.334L676.829 163.877L677.66 163.322ZM684.601 152.451L684.655 151.453L684.072 151.422L683.758 151.913L684.601 152.451ZM688.462 146.244L687.604 145.729L687.305 146.227L687.59 146.734L688.462 146.244ZM696.899 132.203L696.045 131.682L696.042 131.687L696.899 132.203ZM696.906 132.19L696.056 131.665L696.052 131.67L696.906 132.19ZM701.411 124.896L701.629 123.92L700.934 123.764L700.56 124.37L701.411 124.896ZM699.328 123.73L700.179 124.256L700.588 123.594L700.047 123.035L699.328 123.73ZM695.262 130.314L695.161 131.309L695.784 131.373L696.113 130.84L695.262 130.314ZM676.485 128.403L675.93 127.572L673.617 129.116L676.384 129.398L676.485 128.403ZM693.888 116.78L694.443 117.612L693.888 116.78ZM694.233 116.55L694.788 117.382L695.078 117.188L695.185 116.857L694.233 116.55ZM694.36 116.155L693.409 115.848L693.409 115.848L694.36 116.155ZM697.022 107.912L696.525 107.044L696.189 107.236L696.071 107.604L697.022 107.912ZM715.578 97.2684L716.443 97.7697L718.309 94.549L715.081 96.401L715.578 97.2684ZM711.102 104.994L710.898 105.973L711.605 106.12L711.967 105.495L711.102 104.994ZM713.201 106.128L712.336 105.626L711.951 106.291L712.493 106.834L713.201 106.128ZM719.865 94.6264L720.73 95.1277L720.73 95.127L719.865 94.6264ZM719.866 94.6239L719.002 94.1206L719 94.1234L719.866 94.6239ZM741.74 57.0775L740.876 56.5741L740.876 56.5741L741.74 57.0775ZM742.115 56.4342L742.979 56.9376L743.293 56.3981L742.946 55.8788L742.115 56.4342ZM741.701 55.8151L742.533 55.2598L741.701 55.8151ZM729.948 38.2169L729.116 38.7723L729.948 38.2169ZM738.74 55.6751L738.947 56.6534L740.392 56.348L739.572 55.1197L738.74 55.6751ZM728.503 57.8393L727.546 58.1305L727.813 59.0072L728.71 58.8177L728.503 57.8393ZM728.627 40.5327L729.459 39.9773L728.903 39.1457L728.072 39.7011L728.627 40.5327ZM719.952 46.3266L719.397 45.495L719.952 46.3266ZM717.969 47.6509L717.414 46.8194L716.582 47.3748L717.137 48.2063L717.969 47.6509ZM722.989 55.1667L722.157 55.7221L722.604 56.3917L723.354 56.0976L722.989 55.1667ZM676.699 65.0756L677.571 65.5651L678.611 63.7126L676.52 64.0917L676.699 65.0756ZM675.459 67.2842L676.331 67.7736L676.331 67.7736L675.459 67.2842ZM674.207 65.5275L674.028 64.5436L674.028 64.5436L674.207 65.5275ZM661.446 67.8418L660.514 68.2064L660.814 68.9726L661.624 68.8257L661.446 67.8418ZM661.639 70.2301L661.46 69.2461L660.801 69.3658L660.661 70.0217L661.639 70.2301ZM672.14 68.3257L673.012 68.8151L674.052 66.9627L671.962 67.3417L672.14 68.3257ZM658.266 93.0469L657.726 93.8885L658.618 94.4614L659.138 93.5363L658.266 93.0469ZM653.27 99.7076L653.448 100.692L655.496 100.321L653.927 98.9535L653.27 99.7076ZM631.573 103.638L630.636 103.988L630.929 104.771L631.751 104.622L631.573 103.638ZM623.509 104.691L623.659 105.68L624.428 105.564L624.504 104.789L623.509 104.691ZM608.478 106.963L607.647 107.518L608 108.047L608.628 107.952L608.478 106.963ZM590.72 80.374L590.555 79.3878L589.03 79.6433L589.889 80.9294L590.72 80.374ZM604.246 78.1083L605.086 77.5667L604.73 77.0132L604.08 77.122L604.246 78.1083ZM610.207 87.3621L611.158 87.6719L611.305 87.22L611.048 86.8205L610.207 87.3621ZM611.709 85.2905L610.868 85.8321L611.443 86.7237L612.299 86.0978L611.709 85.2905ZM606.806 77.6794L606.64 76.6931L605.142 76.9441L605.965 78.221L606.806 77.6794ZM617.478 75.8914L618.327 75.3632L617.974 74.7945L617.313 74.9052L617.478 75.8914ZM621.949 77.7591L622.78 77.2037L622.398 76.6315L621.727 76.784L621.949 77.7591ZM628.392 87.4057L629.223 86.8503L628.392 87.4057ZM628.639 87.777L627.808 88.3324L628.016 88.6437L628.377 88.7419L628.639 87.777ZM629.07 87.8941L629.333 86.9291L629.333 86.9291L629.07 87.8941ZM640.467 90.9922L641.279 90.4075L641.072 90.1201L640.73 90.0272L640.467 90.9922ZM647.479 86.4885L646.534 86.1636L646.387 86.5908L646.61 86.9834L647.479 86.4885ZM649.848 79.5921L648.903 79.2672L648.903 79.2672L649.848 79.5921ZM650.054 78.9918L651 79.3166L651.173 78.8131L650.852 78.3885L650.054 78.9918ZM649.672 78.4855L648.874 79.0888L648.874 79.0888L649.672 78.4855ZM645.523 73.0014L644.604 72.6083L644.376 73.1419L644.726 73.6047L645.523 73.0014ZM637.584 70.5979L637.721 71.5885L638.436 71.4897L638.568 70.78L637.584 70.5979ZM624.973 72.3415L624.027 72.665L624.293 73.445L625.11 73.3321L624.973 72.3415ZM616.851 73.5788L617.016 74.5651L617.828 74.4291L617.851 73.6061L616.851 73.5788ZM604.626 75.6269L604.791 76.6131L604.791 76.6131L604.626 75.6269ZM588.508 78.327L588.343 77.3407L588.343 77.3407L588.508 78.327ZM586.689 78.6316L586.524 77.6454L584.999 77.9009L585.858 79.187L586.689 78.6316ZM587.713 80.165L586.882 80.7204L587.713 80.165ZM606.916 108.917L607.748 108.362L606.916 108.917ZM607.337 109.547L606.505 110.102L606.858 110.631L607.486 110.536L607.337 109.547ZM608.086 109.434L607.936 108.445L607.936 108.445L608.086 109.434ZM623.966 107.034L624.851 106.569L624.52 105.939L623.816 106.045L623.966 107.034ZM631.729 106.033L631.551 105.049L630.902 105.166L630.754 105.809L631.729 106.033ZM655.647 101.7L655.825 102.684L655.825 102.684L655.647 101.7ZM656.199 101.6L656.378 102.584L656.841 102.5L657.071 102.09L656.199 101.6ZM656.474 101.111L655.602 100.621L655.602 100.621L656.474 101.111ZM656.721 100.672L656.551 99.6861L656.082 99.7669L655.849 100.182L656.721 100.672ZM659.891 95.0232L659.019 94.5337L658.786 94.9492L658.961 95.392L659.891 95.0232ZM625.062 74.7363L624.925 73.7458L624.262 73.8375L624.094 74.4857L625.062 74.7363ZM624.031 76.5828L623.311 75.8888L622.752 76.4686L623.199 77.1382L624.031 76.5828ZM637.838 72.97L638.76 72.5826L638.462 71.8742L637.701 71.9794L637.838 72.97ZM643.945 74.867L644.742 74.2637L644.183 73.5244L643.403 74.0261L643.945 74.867ZM647.387 79.4178L648.333 79.7426L648.506 79.2391L648.184 78.8145L647.387 79.4178ZM645.558 84.7418L645.15 85.6547L646.148 86.1011L646.504 85.0667L645.558 84.7418ZM639.685 88.3085L639.423 89.2735L640.611 89.5965L640.683 88.3672L639.685 88.3085ZM630.126 85.7102L629.295 86.2656L629.503 86.5769L629.864 86.6752L630.126 85.7102ZM716.701 20.1827L717.363 21.1741L719.026 20.0633L718.364 19.0719L716.701 20.1827ZM717.096 21.121L718.088 20.4589L716.977 18.7957L715.986 19.4579L717.096 21.121ZM707.361 27.6228L717.096 21.121L715.986 19.4579L706.251 25.9596L707.361 27.6228ZM703.876 28.1587C704.687 27.617 705.655 27.4978 706.526 27.7513L707.085 25.831C705.671 25.4194 704.088 25.612 702.765 26.4956L703.876 28.1587ZM702.999 32.5594C702.026 31.1022 702.418 29.132 703.876 28.1587L702.765 26.4956C700.389 28.0823 699.749 31.2944 701.336 33.6702L702.999 32.5594ZM707.4 33.4357C705.943 34.4089 703.972 34.0166 702.999 32.5594L701.336 33.6702C702.923 36.0459 706.135 36.6856 708.511 35.0989L707.4 33.4357ZM708.276 29.0351C709.249 30.4922 708.857 32.4625 707.4 33.4357L708.511 35.0989C710.886 33.5122 711.526 30.3 709.939 27.9243L708.276 29.0351ZM708.143 28.8502C708.189 28.9096 708.234 28.9713 708.276 29.0351L709.939 27.9243C709.871 27.8214 709.799 27.7216 709.724 27.6251L708.143 28.8502ZM716.318 22.1029L708.378 27.406L709.489 29.0692L717.429 23.7661L716.318 22.1029ZM728.134 37.9944L717.705 22.3791L716.042 23.4899L726.471 39.1052L728.134 37.9944ZM719.183 45.1753L727.858 39.3814L726.747 37.7182L718.072 43.5121L719.183 45.1753ZM716.209 47.1618L719.183 45.1753L718.072 43.5121L715.098 45.4986L716.209 47.1618ZM715.217 47.824L716.209 47.1618L715.098 45.4986L714.106 46.1608L715.217 47.824ZM716.156 47.4284L715.493 46.437L713.83 47.5478L714.492 48.5392L716.156 47.4284ZM721.936 56.0836L716.156 47.4284L714.492 48.5392L720.273 57.1944L721.936 56.0836ZM721.871 60.8157C721.12 59.6918 721.181 58.2605 721.92 57.2173L720.289 56.0607C719.086 57.7577 718.982 60.0907 720.208 61.9265L721.871 60.8157ZM722.004 61.0006C721.958 60.9411 721.913 60.8794 721.871 60.8157L720.208 61.9265C720.276 62.0294 720.348 62.1291 720.423 62.2257L722.004 61.0006ZM691.157 82.8895L721.769 62.4447L720.658 60.7815L690.046 81.2264L691.157 82.8895ZM704.751 54.5342L689.727 81.5722L691.476 82.5436L706.499 55.5056L704.751 54.5342ZM705.104 53.8981L704.751 54.5342L706.499 55.5056L706.852 54.8695L705.104 53.8981ZM704.743 54.334L705.147 54.9392L706.81 53.8284L706.406 53.2232L704.743 54.334ZM701.101 48.8811L704.743 54.334L706.406 53.2232L702.764 47.7703L701.101 48.8811ZM696.313 41.7131L701.101 48.8811L702.764 47.7703L697.977 40.6023L696.313 41.7131ZM696.379 36.981C697.129 38.1049 697.069 39.5362 696.329 40.5794L697.961 41.736C699.164 40.039 699.268 37.706 698.042 35.8702L696.379 36.981ZM691.978 36.1047C693.435 35.1315 695.406 35.5238 696.379 36.981L698.042 35.8702C696.455 33.4945 693.243 32.8548 690.867 34.4415L691.978 36.1047ZM691.102 40.5053C690.129 39.0481 690.521 37.0779 691.978 36.1047L690.867 34.4415C688.492 36.0282 687.852 39.2404 689.439 41.6161L691.102 40.5053ZM694.896 41.6991C693.538 42.2319 691.945 41.7674 691.102 40.5053L689.439 41.6161C690.815 43.6765 693.411 44.4299 695.626 43.5609L694.896 41.6991ZM700.781 49.0946L696.093 42.0746L694.429 43.1854L699.118 50.2054L700.781 49.0946ZM704.019 53.9424L700.781 49.0946L699.118 50.2054L702.356 55.0532L704.019 53.9424ZM686.998 85.6926L704.061 54.9835L702.313 54.0121L685.25 84.7213L686.998 85.6926ZM688.506 86.0421L686.802 84.4716L685.446 85.9423L687.151 87.5129L688.506 86.0421ZM722.786 62.228L687.273 85.9459L688.384 87.6091L723.896 63.8911L722.786 62.228ZM726.271 61.692C725.46 62.2337 724.492 62.3529 723.62 62.0994L723.062 64.0197C724.476 64.4313 726.059 64.2387 727.382 63.3552L726.271 61.692ZM727.543 59.9846C727.336 60.6598 726.905 61.2689 726.271 61.692L727.382 63.3552C728.413 62.6667 729.118 61.67 729.455 60.57L727.543 59.9846ZM738.12 57.2213L728.292 59.2989L728.706 61.2557L738.533 59.1781L738.12 57.2213ZM718.829 93.6541L739.191 58.7031L737.462 57.6963L717.101 92.6473L718.829 93.6541ZM695.934 106.94L718.462 94.0181L717.467 92.2832L694.939 105.205L695.934 106.94ZM695.534 107.169L695.934 106.94L694.939 105.205L694.539 105.434L695.534 107.169ZM695.846 107.048L695.988 106.609L694.085 105.994L693.943 106.433L695.846 107.048ZM693.17 115.335L695.846 107.048L693.943 106.433L691.267 114.721L693.17 115.335ZM673.319 128.853L692.774 115.859L691.663 114.196L672.208 127.19L673.319 128.853ZM663.848 128.058L672.656 129.016L672.872 127.027L664.064 126.07L663.848 128.058ZM678.71 100.155L663.095 126.555L664.817 127.573L680.432 101.173L678.71 100.155ZM683.068 99.5067C682.121 100.14 680.956 100.196 679.986 99.754L679.156 101.574C680.73 102.291 682.632 102.203 684.179 101.17L683.068 99.5067ZM684.462 97.1947C684.368 98.1037 683.885 98.9612 683.068 99.5067L684.179 101.17C685.512 100.28 686.298 98.8773 686.451 97.4019L684.462 97.1947ZM711.108 83.7844L685.022 96.398L685.892 98.1986L711.979 85.585L711.108 83.7844ZM716.536 84.6815C715.165 85.597 713.339 85.304 712.318 84.0526L710.768 85.3168C712.435 87.3592 715.411 87.8381 717.647 86.3446L716.536 84.6815ZM717.412 80.2808C718.385 81.738 717.993 83.7082 716.536 84.6815L717.647 86.3446C720.022 84.7579 720.662 81.5458 719.075 79.17L717.412 80.2808ZM713.012 79.4045C714.469 78.4313 716.439 78.8236 717.412 80.2808L719.075 79.17C717.489 76.7943 714.277 76.1546 711.901 77.7413L713.012 79.4045ZM711.618 82.3769C711.499 81.24 711.999 80.081 713.012 79.4045L711.901 77.7413C710.246 78.8463 709.435 80.739 709.629 82.5852L711.618 82.3769ZM685.412 95.7823L711.058 83.3813L710.188 81.5808L684.541 93.9818L685.412 95.7823ZM683.945 95.1061C684 95.1891 684.051 95.2735 684.097 95.3591L685.855 94.4051C685.78 94.2659 685.697 94.1292 685.608 93.9953L683.945 95.1061ZM679.544 94.2298C681.001 93.2565 682.971 93.6489 683.945 95.1061L685.608 93.9953C684.021 91.6195 680.809 90.9799 678.433 92.5666L679.544 94.2298ZM678.604 98.5306C677.713 97.0849 678.12 95.1809 679.544 94.2298L678.433 92.5666C676.111 94.1176 675.448 97.2215 676.901 99.5799L678.604 98.5306ZM661.823 127.952L678.613 99.5643L676.892 98.5461L660.101 126.934L661.823 127.952ZM660.881 129.544L661.823 127.952L660.101 126.934L659.159 128.526L660.881 129.544ZM661.967 128.241L660.128 128.041L659.912 130.029L661.751 130.229L661.967 128.241ZM673.045 129.445L661.967 128.241L661.751 130.229L672.829 131.433L673.045 129.445ZM673.049 129.445L673.041 129.444L672.832 131.433L672.841 131.434L673.049 129.445ZM693.996 131.577L673.046 129.445L672.844 131.434L693.794 133.567L693.996 131.577ZM687.552 145.07L694.752 133.087L693.038 132.057L685.838 144.04L687.552 145.07ZM683.059 145.646C684.041 144.989 685.258 144.953 686.247 145.449L687.143 143.661C685.537 142.856 683.552 142.911 681.948 143.982L683.059 145.646ZM681.789 147.348C681.997 146.675 682.427 146.068 683.059 145.646L681.948 143.982C680.92 144.669 680.216 145.663 679.878 146.759L681.789 147.348ZM666.599 147.789L680.815 148.053L680.852 146.054L666.637 145.789L666.599 147.789ZM660.812 139.896L665.787 147.344L667.45 146.233L662.475 138.785L660.812 139.896ZM661.607 138.213C661.478 138.299 661.346 138.374 661.211 138.438L662.075 140.242C662.295 140.137 662.51 140.015 662.718 139.876L661.607 138.213ZM662.484 133.812C663.457 135.269 663.064 137.239 661.607 138.213L662.718 139.876C665.094 138.289 665.733 135.077 664.147 132.701L662.484 133.812ZM658.083 132.936C659.54 131.962 661.51 132.355 662.484 133.812L664.147 132.701C662.56 130.325 659.348 129.686 656.972 131.273L658.083 132.936ZM657.207 137.336C656.233 135.879 656.626 133.909 658.083 132.936L656.972 131.273C654.596 132.859 653.957 136.071 655.543 138.447L657.207 137.336ZM659.194 138.679C658.408 138.515 657.687 138.056 657.207 137.336L655.543 138.447C656.326 139.619 657.506 140.369 658.783 140.637L659.194 138.679ZM665.813 148.076L659.82 139.103L658.157 140.214L664.15 149.187L665.813 148.076ZM666.159 148.594L665.813 148.076L664.15 149.187L664.496 149.705L666.159 148.594ZM665.969 148.161L665.346 148.15L665.309 150.149L665.932 150.161L665.969 148.161ZM680.828 148.438L665.969 148.161L665.932 150.161L680.791 150.438L680.828 148.438ZM682.183 150.046C681.995 149.765 681.859 149.467 681.771 149.161L679.849 149.715C679.993 150.216 680.216 150.703 680.519 151.157L682.183 150.046ZM682.908 150.817C682.633 150.609 682.387 150.352 682.183 150.046L680.519 151.157C680.85 151.651 681.252 152.072 681.703 152.413L682.908 150.817ZM676.466 162.619L683.149 152.153L681.463 151.077L674.781 161.543L676.466 162.619ZM660.367 161.642L675.529 163.077L675.718 161.085L660.555 159.651L660.367 161.642ZM650.674 147.793L659.629 161.201L661.293 160.091L652.337 146.682L650.674 147.793ZM649.592 146.172L650.674 147.793L652.337 146.682L651.255 145.062L649.592 146.172ZM650.346 147.806L651.296 146.105L649.55 145.129L648.6 146.83L650.346 147.806ZM643 160.956L650.346 147.806L648.6 146.83L641.254 159.98L643 160.956ZM642.644 161.593L643 160.956L641.254 159.98L640.898 160.617L642.644 161.593ZM643.008 161.156L642.603 160.55L640.939 161.66L641.345 162.267L643.008 161.156ZM647.808 168.344L643.008 161.156L641.345 162.267L646.145 169.455L647.808 168.344ZM629.687 181.65L647.532 169.731L646.421 168.068L628.576 179.987L629.687 181.65ZM621.26 187.278L629.687 181.65L628.576 179.987L620.149 185.615L621.26 187.278ZM615.072 179.814L619.873 187.002L621.536 185.891L616.735 178.703L615.072 179.814ZM609.775 171.882L615.072 179.814L616.735 178.703L611.438 170.771L609.775 171.882ZM636.076 153.114L610.051 170.495L611.162 172.158L637.187 154.777L636.076 153.114ZM636.305 152.961L636.076 153.114L637.187 154.777L637.416 154.624L636.305 152.961ZM636.136 153.05L635.997 153.289L637.725 154.296L637.864 154.057L636.136 153.05ZM641.523 143.805L636.136 153.05L637.864 154.057L643.251 144.812L641.523 143.805ZM644.603 142.799C643.957 143.231 643.213 143.394 642.497 143.315L642.278 145.303C643.444 145.431 644.662 145.165 645.714 144.462L644.603 142.799ZM645.479 138.399C646.453 139.856 646.06 141.826 644.603 142.799L645.714 144.462C648.09 142.876 648.729 139.663 647.143 137.288L645.479 138.399ZM641.079 137.522C642.536 136.549 644.506 136.941 645.479 138.399L647.143 137.288C645.556 134.912 642.344 134.272 639.968 135.859L641.079 137.522ZM640.202 141.923C639.229 140.466 639.621 138.495 641.079 137.522L639.968 135.859C637.592 137.446 636.953 140.658 638.539 143.034L640.202 141.923ZM640.813 142.602C640.584 142.412 640.378 142.185 640.202 141.923L638.539 143.034C638.823 143.458 639.159 143.828 639.535 144.14L640.813 142.602ZM635.942 152.619L641.038 143.875L639.31 142.868L634.214 151.612L635.942 152.619ZM609.837 170.176L635.634 152.947L634.523 151.284L608.726 168.512L609.837 170.176ZM603.815 162.959L608.45 169.899L610.113 168.789L605.478 161.848L603.815 162.959ZM622.681 149.157L604.091 161.572L605.202 163.235L623.792 150.82L622.681 149.157ZM630.613 143.859L622.681 149.157L623.792 150.82L631.723 145.523L630.613 143.859ZM630.808 143.729L630.613 143.859L631.723 145.523L631.919 145.392L630.808 143.729ZM630.665 143.807L630.534 144.002L632.193 145.119L632.325 144.923L630.665 143.807ZM638.169 132.654L630.665 143.807L632.325 144.923L639.829 133.77L638.169 132.654ZM641.704 131.786C640.946 132.292 640.05 132.429 639.225 132.238L638.773 134.186C640.114 134.497 641.578 134.274 642.815 133.449L641.704 131.786ZM642.58 127.385C643.554 128.842 643.161 130.812 641.704 131.786L642.815 133.449C645.191 131.862 645.83 128.65 644.243 126.274L642.58 127.385ZM638.18 126.509C639.637 125.535 641.607 125.928 642.58 127.385L644.243 126.274C642.657 123.898 639.445 123.259 637.069 124.845L638.18 126.509ZM637.303 130.909C636.33 129.452 636.722 127.482 638.18 126.509L637.069 124.845C634.693 126.432 634.053 129.644 635.64 132.02L637.303 130.909ZM637.646 131.338C637.522 131.208 637.407 131.065 637.303 130.909L635.64 132.02C635.808 132.272 635.995 132.504 636.198 132.717L637.646 131.338ZM630.478 143.397L637.752 132.586L636.092 131.469L628.818 142.281L630.478 143.397ZM622.467 148.837L630.203 143.67L629.093 142.007L621.357 147.174L622.467 148.837ZM603.878 161.253L622.467 148.837L621.357 147.174L602.767 159.589L603.878 161.253ZM591.396 144.364L602.491 160.976L604.154 159.866L593.059 143.253L591.396 144.364ZM593.524 140.534C593.155 141.492 592.517 142.355 591.636 143.003L592.82 144.615C594.019 143.734 594.887 142.557 595.39 141.254L593.524 140.534ZM616.82 124.755L593.902 140.062L595.013 141.725L617.931 126.419L616.82 124.755ZM639.334 121.153L617.222 124.599L617.53 126.575L639.642 123.129L639.334 121.153ZM643.08 120.746L639.381 121.147L639.596 123.135L643.296 122.734L643.08 120.746ZM644.288 121.648C644.211 121.533 644.143 121.415 644.083 121.295L642.293 122.186C642.39 122.381 642.501 122.573 642.625 122.758L644.288 121.648ZM648.689 122.524C647.231 123.497 645.261 123.105 644.288 121.648L642.625 122.758C644.212 125.134 647.424 125.774 649.799 124.187L648.689 122.524ZM650.013 119.144C650.314 120.401 649.824 121.766 648.689 122.524L649.799 124.187C651.653 122.949 652.448 120.723 651.957 118.678L650.013 119.144ZM661.15 110.92L650.43 118.079L651.54 119.743L662.261 112.583L661.15 110.92ZM666.131 111.177C664.937 111.974 663.397 111.855 662.344 110.982L661.067 112.521C662.782 113.944 665.292 114.142 667.242 112.84L666.131 111.177ZM667.008 106.776C667.981 108.233 667.589 110.204 666.131 111.177L667.242 112.84C669.618 111.253 670.258 108.041 668.671 105.665L667.008 106.776ZM666.705 106.39C666.814 106.509 666.915 106.637 667.008 106.776L668.671 105.665C668.521 105.441 668.357 105.232 668.18 105.039L666.705 106.39ZM678.179 84.1931L666.567 105.231L668.318 106.198L679.93 85.1596L678.179 84.1931ZM680.426 83.7342C680.027 83.7955 679.637 83.7798 679.268 83.6993L678.842 85.6533C679.447 85.7854 680.085 85.8102 680.73 85.711L680.426 83.7342ZM683.08 80.1162C683.346 81.8482 682.158 83.468 680.426 83.7342L680.73 85.711C683.554 85.277 685.491 82.6361 685.057 79.8124L683.08 80.1162ZM679.462 77.4622C681.194 77.196 682.814 78.3842 683.08 80.1162L685.057 79.8124C684.623 76.9887 681.982 75.0514 679.158 75.4854L679.462 77.4622ZM676.808 81.0802C676.542 79.3482 677.73 77.7284 679.462 77.4622L679.158 75.4854C676.335 75.9194 674.397 78.5603 674.831 81.384L676.808 81.0802ZM677.68 82.8218C677.229 82.3636 676.913 81.7658 676.808 81.0802L674.831 81.384C675.003 82.4985 675.519 83.4773 676.255 84.2249L677.68 82.8218ZM666.269 104.976L677.843 84.0066L676.092 83.0401L664.518 104.01L666.269 104.976ZM662.607 105.9C663.384 105.381 664.306 105.25 665.148 105.462L665.638 103.523C664.271 103.178 662.764 103.39 661.496 104.237L662.607 105.9ZM661.336 109.473C660.932 108.166 661.413 106.697 662.607 105.9L661.496 104.237C659.546 105.539 658.768 107.934 659.425 110.064L661.336 109.473ZM650.341 117.676L660.936 110.6L659.825 108.937L649.23 116.013L650.341 117.676ZM645.164 117.247C646.416 116.411 648.048 116.582 649.1 117.573L650.471 116.117C648.757 114.502 646.097 114.219 644.054 115.584L645.164 117.247ZM643.776 119.506C643.884 118.617 644.363 117.782 645.164 117.247L644.054 115.584C642.747 116.456 641.966 117.822 641.791 119.265L643.776 119.506ZM639.311 120.768L642.891 120.38L642.676 118.391L639.096 118.779L639.311 120.768ZM639.284 120.771L639.312 120.768L639.096 118.779L639.068 118.782L639.284 120.771ZM639.303 120.769L639.33 120.765L639.022 118.788L638.995 118.793L639.303 120.769ZM616.903 124.26L639.303 120.769L638.995 118.793L616.595 122.283L616.903 124.26ZM616.643 124.3L616.903 124.26L616.595 122.283L616.335 122.324L616.643 124.3ZM616.826 124.29L617.044 124.144L615.934 122.48L615.715 122.627L616.826 124.29ZM595.411 138.592L616.826 124.29L615.715 122.627L594.3 136.929L595.411 138.592ZM592.963 135.44C593.469 136.198 593.763 137.033 593.862 137.877L595.849 137.645C595.714 136.494 595.312 135.357 594.626 134.329L592.963 135.44ZM591.057 133.676C591.799 134.091 592.457 134.682 592.963 135.44L594.626 134.329C593.94 133.302 593.044 132.495 592.032 131.93L591.057 133.676ZM612.184 117.816L590.989 131.972L592.1 133.635L613.295 119.479L612.184 117.816ZM632.52 114.602L612.588 117.659L612.891 119.636L632.823 116.579L632.52 114.602ZM633.867 115.704C633.757 115.539 633.665 115.369 633.589 115.194L631.753 115.986C631.876 116.271 632.026 116.549 632.204 116.815L633.867 115.704ZM638.268 116.581C636.811 117.554 634.84 117.162 633.867 115.704L632.204 116.815C633.791 119.191 637.003 119.831 639.378 118.244L638.268 116.581ZM639.144 112.18C640.117 113.637 639.725 115.607 638.268 116.581L639.378 118.244C641.754 116.657 642.394 113.445 640.807 111.069L639.144 112.18ZM634.743 111.304C636.201 110.331 638.171 110.723 639.144 112.18L640.807 111.069C639.22 108.694 636.008 108.054 633.633 109.641L634.743 111.304ZM633.381 113.393C633.526 112.568 633.993 111.805 634.743 111.304L633.633 109.641C632.41 110.457 631.646 111.706 631.411 113.047L633.381 113.393ZM612.268 117.319L632.547 114.209L632.244 112.232L611.965 115.343L612.268 117.319ZM612.007 117.36L612.268 117.319L611.965 115.343L611.703 115.383L612.007 117.36ZM612.191 117.35L612.41 117.203L611.3 115.539L611.08 115.686L612.191 117.35ZM589.053 132.802L612.191 117.35L611.08 115.686L587.942 131.139L589.053 132.802ZM585.469 133.769C586.405 133.203 587.447 132.945 588.473 132.97L588.522 130.971C587.126 130.937 585.706 131.288 584.433 132.058L585.469 133.769ZM580.474 128.011L584.12 133.469L585.783 132.358L582.137 126.9L580.474 128.011ZM606.776 109.242L580.75 126.624L581.861 128.287L607.886 110.905L606.776 109.242ZM605.175 108.646L606.499 110.629L608.163 109.518L606.838 107.535L605.175 108.646ZM579.793 126.801L606.562 108.922L605.451 107.259L578.682 125.137L579.793 126.801ZM579.545 126.966L579.793 126.801L578.682 125.137L578.434 125.303L579.545 126.966ZM578.554 127.628L579.545 126.966L578.434 125.303L577.443 125.965L578.554 127.628ZM568.147 134.579L578.554 127.628L577.443 125.965L567.036 132.916L568.147 134.579ZM568.149 134.577C568.149 134.577 568.148 134.577 568.148 134.577C568.148 134.578 568.148 134.578 568.148 134.578C568.147 134.579 568.147 134.579 568.147 134.579L567.036 132.916C566.844 133.044 566.68 133.202 566.547 133.38L568.149 134.577ZM20.3163 500.528L567.903 134.81L566.792 133.147L19.2055 498.865L20.3163 500.528ZM20.548 499.43C20.742 499.721 20.7517 500.237 20.3163 500.528L19.2055 498.865C18.5888 499.277 18.5585 500.052 18.8848 500.541L20.548 499.43ZM62.3208 561.976L20.548 499.43L18.8848 500.541L60.6576 563.087L62.3208 561.976ZM61.2178 561.77C61.6531 561.479 62.1267 561.686 62.3208 561.976L60.6576 563.087C60.9839 563.576 61.7119 563.845 62.3286 563.433L61.2178 561.77ZM608.987 195.929L61.2178 561.77L62.3286 563.433L610.098 197.593L608.987 195.929ZM609.083 195.873L609.084 195.872L610.001 197.649C610.067 197.616 610.131 197.578 610.194 197.536L609.083 195.873ZM619.49 188.922L609.083 195.873L610.194 197.536L620.601 190.585L619.49 188.922ZM620.482 188.26L619.49 188.922L620.601 190.585L621.592 189.923L620.482 188.26ZM620.73 188.094L620.482 188.26L621.592 189.923L621.84 189.758L620.73 188.094ZM629.9 181.969L620.73 188.094L621.84 189.758L631.011 183.633L629.9 181.969ZM647.746 170.051L629.9 181.969L631.011 183.633L648.857 171.714L647.746 170.051ZM662.542 190.404L649.133 170.327L647.47 171.438L660.878 191.515L662.542 190.404ZM663.204 191.395L662.542 190.404L660.878 191.515L661.541 192.506L663.204 191.395ZM662.808 190.457L661.817 191.119L662.928 192.782L663.919 192.12L662.808 190.457ZM669.233 186.166L662.808 190.457L663.919 192.12L670.343 187.83L669.233 186.166ZM673.965 186.232C672.841 186.982 671.41 186.922 670.366 186.182L669.21 187.814C670.907 189.017 673.24 189.121 675.075 187.895L673.965 186.232ZM674.841 181.831C675.814 183.288 675.422 185.259 673.965 186.232L675.075 187.895C677.451 186.308 678.091 183.096 676.504 180.72L674.841 181.831ZM670.44 180.955C671.898 179.982 673.868 180.374 674.841 181.831L676.504 180.72C674.917 178.345 671.705 177.705 669.33 179.292L670.44 180.955ZM669.247 184.749C668.714 183.391 669.178 181.798 670.44 180.955L669.33 179.292C667.269 180.668 666.516 183.264 667.385 185.479L669.247 184.749ZM663.586 189.475L668.871 185.945L667.76 184.282L662.475 187.812L663.586 189.475ZM648.79 169.122L662.199 189.199L663.862 188.088L650.454 168.011L648.79 169.122ZM643.733 161.549L648.79 169.122L650.454 168.011L645.396 160.439L643.733 161.549ZM649.732 149.694L643.691 160.506L645.437 161.482L651.478 150.669L649.732 149.694ZM659.624 161.886L651.436 149.626L649.773 150.737L657.961 162.997L659.624 161.886ZM659.939 162.358L659.624 161.886L657.961 162.997L658.276 163.469L659.939 162.358ZM659.766 161.971L659.202 161.918L659.013 163.909L659.578 163.962L659.766 161.971ZM675.654 163.475L659.766 161.971L659.578 163.962L675.465 165.466L675.654 163.475ZM681.876 172.127L676.391 163.915L674.728 165.025L680.213 173.238L681.876 172.127ZM680.966 177.741C680.035 176.347 680.353 174.484 681.657 173.473L680.432 171.892C678.304 173.541 677.785 176.579 679.303 178.851L680.966 177.741ZM685.366 178.617C683.909 179.59 681.939 179.198 680.966 177.741L679.303 178.851C680.889 181.227 684.101 181.867 686.477 180.28L685.366 178.617ZM686.243 174.216C687.216 175.673 686.824 177.644 685.366 178.617L686.477 180.28C688.853 178.693 689.493 175.481 687.906 173.105L686.243 174.216ZM683.396 172.812C684.492 172.741 685.591 173.241 686.243 174.216L687.906 173.105C686.842 171.512 685.047 170.701 683.267 170.816L683.396 172.812ZM676.829 163.877L682.5 172.369L684.163 171.258L678.492 162.766L676.829 163.877ZM683.758 151.913L676.817 162.784L678.503 163.86L685.444 152.989L683.758 151.913ZM686.583 150.923C685.99 151.319 685.315 151.488 684.655 151.453L684.548 153.45C685.624 153.508 686.729 153.23 687.694 152.586L686.583 150.923ZM687.59 146.734C688.393 148.164 687.971 149.996 686.583 150.923L687.694 152.586C689.957 151.074 690.645 148.089 689.334 145.755L687.59 146.734ZM696.042 131.687L687.604 145.729L689.319 146.759L697.756 132.718L696.042 131.687ZM696.052 131.67L696.045 131.683L697.753 132.723L697.761 132.71L696.052 131.67ZM700.56 124.37L696.056 131.665L697.757 132.716L702.262 125.421L700.56 124.37ZM704.086 123.463C703.334 123.964 702.448 124.103 701.629 123.92L701.192 125.872C702.523 126.17 703.972 125.944 705.196 125.126L704.086 123.463ZM704.962 119.062C705.935 120.519 705.543 122.489 704.086 123.463L705.196 125.126C707.572 123.539 708.212 120.327 706.625 117.951L704.962 119.062ZM700.561 118.186C702.018 117.212 703.989 117.605 704.962 119.062L706.625 117.951C705.038 115.575 701.826 114.936 699.451 116.522L700.561 118.186ZM699.685 122.586C698.712 121.129 699.104 119.159 700.561 118.186L699.451 116.522C697.075 118.109 696.435 121.321 698.022 123.697L699.685 122.586ZM700.047 123.035C699.915 122.899 699.794 122.75 699.685 122.586L698.022 123.697C698.198 123.961 698.395 124.204 698.609 124.426L700.047 123.035ZM696.113 130.84L700.179 124.256L698.477 123.205L694.411 129.789L696.113 130.84ZM676.384 129.398L695.161 131.309L695.364 129.32L676.587 127.408L676.384 129.398ZM693.333 115.949L675.93 127.572L677.041 129.235L694.443 117.612L693.333 115.949ZM693.678 115.718L693.333 115.949L694.443 117.612L694.788 117.382L693.678 115.718ZM693.409 115.848L693.281 116.243L695.185 116.857L695.312 116.463L693.409 115.848ZM696.071 107.604L693.409 115.848L695.312 116.463L697.974 108.219L696.071 107.604ZM715.081 96.401L696.525 107.044L697.52 108.779L716.076 98.1358L715.081 96.401ZM711.967 105.495L716.443 97.7697L714.713 96.7671L710.237 104.493L711.967 105.495ZM708.488 106.44C709.225 105.948 710.092 105.805 710.898 105.973L711.306 104.015C709.997 103.742 708.579 103.974 707.377 104.777L708.488 106.44ZM707.611 110.841C706.638 109.384 707.03 107.414 708.488 106.44L707.377 104.777C705.001 106.364 704.361 109.576 705.948 111.952L707.611 110.841ZM712.012 111.717C710.555 112.69 708.584 112.298 707.611 110.841L705.948 111.952C707.535 114.327 710.747 114.967 713.123 113.38L712.012 111.717ZM712.888 107.317C713.861 108.774 713.469 110.744 712.012 111.717L713.123 113.38C715.498 111.794 716.138 108.582 714.551 106.206L712.888 107.317ZM712.493 106.834C712.637 106.978 712.77 107.139 712.888 107.317L714.551 106.206C714.36 105.919 714.145 105.658 713.909 105.421L712.493 106.834ZM718.999 94.1251L712.336 105.626L714.066 106.629L720.73 95.1277L718.999 94.1251ZM719 94.1234L718.999 94.1258L720.73 95.127L720.732 95.1245L719 94.1234ZM740.876 56.5741L719.002 94.1206L720.73 95.1273L742.604 57.5809L740.876 56.5741ZM741.251 55.9308L740.876 56.5741L742.604 57.5809L742.979 56.9376L741.251 55.9308ZM740.87 56.3705L741.283 56.9896L742.946 55.8788L742.533 55.2598L740.87 56.3705ZM729.116 38.7723L740.87 56.3705L742.533 55.2598L730.779 37.6615L729.116 38.7723ZM717.363 21.1741L729.116 38.7723L730.779 37.6615L719.026 20.0633L717.363 21.1741ZM738.533 54.6967L728.296 56.8609L728.71 58.8177L738.947 56.6534L738.533 54.6967ZM727.796 41.0881L737.909 56.2305L739.572 55.1197L729.459 39.9773L727.796 41.0881ZM720.507 47.1582L729.183 41.3643L728.072 39.7011L719.397 45.495L720.507 47.1582ZM718.524 48.4825L720.507 47.1582L719.397 45.495L717.414 46.8194L718.524 48.4825ZM723.82 54.6113L718.801 47.0956L717.137 48.2063L722.157 55.7221L723.82 54.6113ZM728.811 56.1805C727.435 54.1202 724.838 53.3668 722.623 54.2357L723.354 56.0976C724.712 55.5647 726.305 56.0292 727.148 57.2913L728.811 56.1805ZM729.459 57.548C729.315 57.0732 729.099 56.6122 728.811 56.1805L727.148 57.2913C727.326 57.5584 727.458 57.841 727.546 58.1305L729.459 57.548ZM675.827 64.5862L674.587 66.7947L676.331 67.7736L677.571 65.5651L675.827 64.5862ZM674.385 66.5115L676.877 66.0596L676.52 64.0917L674.028 64.5436L674.385 66.5115ZM661.624 68.8257L674.385 66.5115L674.028 64.5436L661.267 66.8578L661.624 68.8257ZM660.196 67.5979C660.327 67.7937 660.433 67.9977 660.514 68.2064L662.377 67.4772C662.243 67.1353 662.071 66.8033 661.859 66.4871L660.196 67.5979ZM655.796 66.7216C657.253 65.7483 659.223 66.1407 660.196 67.5979L661.859 66.4871C660.273 64.1113 657.061 63.4717 654.685 65.0584L655.796 66.7216ZM654.919 71.1222C653.946 69.665 654.338 67.6948 655.796 66.7216L654.685 65.0584C652.309 66.6451 651.669 69.8573 653.256 72.233L654.919 71.1222ZM659.32 71.9985C657.863 72.9717 655.893 72.5794 654.919 71.1222L653.256 72.233C654.843 74.6087 658.055 75.2484 660.431 73.6617L659.32 71.9985ZM660.661 70.0217C660.494 70.8033 660.036 71.5203 659.32 71.9985L660.431 73.6617C661.597 72.8825 662.346 71.7092 662.617 70.4385L660.661 70.0217ZM671.962 67.3417L661.46 69.2461L661.817 71.214L672.319 69.3096L671.962 67.3417ZM659.138 93.5363L673.012 68.8151L671.268 67.8362L657.394 92.5574L659.138 93.5363ZM654.248 93.9202C655.329 93.1982 656.694 93.2267 657.726 93.8885L658.806 92.2052C657.129 91.1294 654.903 91.0776 653.137 92.257L654.248 93.9202ZM653.371 98.3209C652.398 96.8637 652.79 94.8934 654.248 93.9202L653.137 92.257C650.761 93.8437 650.122 97.0559 651.708 99.4317L653.371 98.3209ZM653.927 98.9535C653.72 98.7733 653.533 98.5622 653.371 98.3209L651.708 99.4317C651.969 99.8217 652.274 100.166 652.613 100.462L653.927 98.9535ZM631.751 104.622L653.448 100.692L653.092 98.7236L631.394 102.654L631.751 104.622ZM630.301 103.335C630.441 103.545 630.552 103.764 630.636 103.988L632.509 103.287C632.372 102.92 632.19 102.563 631.964 102.224L630.301 103.335ZM625.9 102.459C627.357 101.485 629.328 101.878 630.301 103.335L631.964 102.224C630.377 99.8483 627.165 99.2087 624.789 100.795L625.9 102.459ZM624.504 104.789C624.594 103.873 625.078 103.008 625.9 102.459L624.789 100.795C623.448 101.691 622.66 103.107 622.514 104.594L624.504 104.789ZM608.628 107.952L623.659 105.68L623.36 103.703L608.329 105.974L608.628 107.952ZM589.889 80.9294L607.647 107.518L609.31 106.407L591.552 79.8186L589.889 80.9294ZM604.08 77.122L590.555 79.3878L590.886 81.3603L604.411 79.0945L604.08 77.122ZM611.048 86.8205L605.086 77.5667L603.405 78.6498L609.366 87.9036L611.048 86.8205ZM611.535 90.4198C610.974 89.5786 610.866 88.5674 611.158 87.6719L609.256 87.0522C608.783 88.5055 608.956 90.1581 609.872 91.5306L611.535 90.4198ZM615.936 91.2961C614.479 92.2693 612.509 91.877 611.535 90.4198L609.872 91.5306C611.459 93.9063 614.671 94.5459 617.047 92.9593L615.936 91.2961ZM616.812 86.8954C617.786 88.3526 617.393 90.3229 615.936 91.2961L617.047 92.9593C619.423 91.3726 620.062 88.1604 618.476 85.7846L616.812 86.8954ZM612.412 86.0191C613.869 85.0459 615.839 85.4382 616.812 86.8954L618.476 85.7846C616.889 83.4089 613.677 82.7693 611.301 84.3559L612.412 86.0191ZM612.299 86.0978C612.336 86.071 612.373 86.0447 612.412 86.0191L611.301 84.3559C611.239 84.3972 611.178 84.4397 611.119 84.4832L612.299 86.0978ZM605.965 78.221L610.868 85.8321L612.55 84.7489L607.646 77.1378L605.965 78.221ZM617.313 74.9052L606.64 76.6931L606.971 78.6656L617.644 76.8777L617.313 74.9052ZM618.384 75.4514C618.365 75.4221 618.346 75.3927 618.327 75.3632L616.629 76.4197C616.659 76.4676 616.69 76.515 616.721 76.5622L618.384 75.4514ZM621.727 76.784C620.48 77.0675 619.135 76.5753 618.384 75.4514L616.721 76.5622C617.947 78.3979 620.142 79.1954 622.17 78.7342L621.727 76.784ZM629.223 86.8503L622.78 77.2037L621.117 78.3145L627.56 87.9611L629.223 86.8503ZM629.471 87.2216L629.223 86.8503L627.56 87.9611L627.808 88.3324L629.471 87.2216ZM629.333 86.9291L628.902 86.812L628.377 88.7419L628.808 88.859L629.333 86.9291ZM640.73 90.0272L629.333 86.9291L628.808 88.859L640.205 91.9572L640.73 90.0272ZM645.613 91.1886C644.188 92.1403 642.272 91.7861 641.279 90.4075L639.656 91.5769C641.277 93.8259 644.4 94.4037 646.724 92.8518L645.613 91.1886ZM646.61 86.9834C647.426 88.4161 647.006 90.2583 645.613 91.1886L646.724 92.8518C648.996 91.3345 649.68 88.3315 648.348 85.9935L646.61 86.9834ZM648.903 79.2672L646.534 86.1636L648.425 86.8133L650.794 79.917L648.903 79.2672ZM649.109 78.6669L648.903 79.2672L650.794 79.917L651 79.3166L649.109 78.6669ZM648.874 79.0888L649.257 79.595L650.852 78.3885L650.469 77.8823L648.874 79.0888ZM644.726 73.6047L648.874 79.0888L650.469 77.8823L646.321 72.3981L644.726 73.6047ZM644.326 69.5951C644.944 70.5204 645.012 71.6526 644.604 72.6083L646.443 73.3945C647.106 71.8437 646.998 69.995 645.989 68.4843L644.326 69.5951ZM639.925 68.7188C641.383 67.7456 643.353 68.1379 644.326 69.5951L645.989 68.4843C644.402 66.1086 641.19 65.4689 638.815 67.0556L639.925 68.7188ZM638.568 70.78C638.718 69.9658 639.184 69.2141 639.925 68.7188L638.815 67.0556C637.606 67.8629 636.846 69.0928 636.601 70.4159L638.568 70.78ZM625.11 73.3321L637.721 71.5885L637.447 69.6074L624.836 71.3509L625.11 73.3321ZM623.661 71.927C623.819 72.1629 623.94 72.411 624.027 72.665L625.919 72.018C625.777 71.6016 625.579 71.1975 625.324 70.8162L623.661 71.927ZM619.261 71.0507C620.718 70.0775 622.688 70.4698 623.661 71.927L625.324 70.8162C623.738 68.4405 620.526 67.8009 618.15 69.3875L619.261 71.0507ZM617.851 73.6061C617.878 72.6091 618.371 71.6446 619.261 71.0507L618.15 69.3875C616.698 70.357 615.896 71.9338 615.851 73.5515L617.851 73.6061ZM604.791 76.6131L617.016 74.5651L616.686 72.5926L604.46 74.6406L604.791 76.6131ZM588.673 79.3133L604.791 76.6131L604.46 74.6406L588.343 77.3407L588.673 79.3133ZM586.855 79.6179L588.673 79.3133L588.343 77.3407L586.524 77.6454L586.855 79.6179ZM588.545 79.6096L587.521 78.0763L585.858 79.187L586.882 80.7204L588.545 79.6096ZM607.748 108.362L588.545 79.6096L586.882 80.7204L606.085 109.472L607.748 108.362ZM608.168 108.991L607.748 108.362L606.085 109.472L606.505 110.102L608.168 108.991ZM607.936 108.445L607.187 108.558L607.486 110.536L608.235 110.422L607.936 108.445ZM623.816 106.045L607.936 108.445L608.235 110.422L624.115 108.023L623.816 106.045ZM625.024 106.859C624.96 106.764 624.903 106.667 624.851 106.569L623.081 107.499C623.165 107.66 623.258 107.817 623.361 107.97L625.024 106.859ZM629.424 107.736C627.967 108.709 625.997 108.316 625.024 106.859L623.361 107.97C624.947 110.346 628.16 110.985 630.535 109.399L629.424 107.736ZM630.754 105.809C630.579 106.571 630.125 107.267 629.424 107.736L630.535 109.399C631.677 108.636 632.419 107.496 632.703 106.257L630.754 105.809ZM655.469 100.716L631.551 105.049L631.907 107.017L655.825 102.684L655.469 100.716ZM656.021 100.616L655.469 100.716L655.825 102.684L656.378 102.584L656.021 100.616ZM655.602 100.621L655.327 101.111L657.071 102.09L657.346 101.6L655.602 100.621ZM655.849 100.182L655.602 100.621L657.346 101.6L657.593 101.161L655.849 100.182ZM657.772 99.1972C657.389 99.4528 656.974 99.6133 656.551 99.6861L656.89 101.657C657.584 101.538 658.263 101.274 658.883 100.86L657.772 99.1972ZM658.961 95.392C659.501 96.7525 659.038 98.3519 657.772 99.1972L658.883 100.86C660.949 99.4805 661.701 96.8732 660.82 94.6543L658.961 95.392ZM674.587 66.7947L659.019 94.5337L660.763 95.5126L676.331 67.7736L674.587 66.7947ZM624.094 74.4857C623.96 75.0053 623.694 75.4906 623.311 75.8888L624.751 77.2768C625.38 76.6241 625.812 75.831 626.03 74.9869L624.094 74.4857ZM637.701 71.9794L624.925 73.7458L625.199 75.7269L637.975 73.9606L637.701 71.9794ZM639.049 73.1195C638.933 72.9461 638.837 72.7663 638.76 72.5826L636.916 73.3574C637.042 73.6581 637.199 73.9504 637.386 74.2303L639.049 73.1195ZM643.403 74.0261C641.951 74.9607 640.012 74.5613 639.049 73.1195L637.386 74.2303C638.956 76.5812 642.118 77.2321 644.486 75.7079L643.403 74.0261ZM648.184 78.8145L644.742 74.2637L643.147 75.4702L646.589 80.021L648.184 78.8145ZM646.504 85.0667L648.333 79.7426L646.441 79.0929L644.612 84.4169L646.504 85.0667ZM642.089 85.9117C643.03 85.2834 644.185 85.2231 645.15 85.6547L645.966 83.8289C644.4 83.1285 642.514 83.2226 640.978 84.2485L642.089 85.9117ZM640.683 88.3672C640.74 87.4058 641.229 86.4858 642.089 85.9117L640.978 84.2485C639.575 85.1854 638.779 86.6898 638.687 88.2498L640.683 88.3672ZM629.864 86.6752L639.423 89.2735L639.947 87.3435L630.389 84.7452L629.864 86.6752ZM623.199 77.1382L629.295 86.2656L630.958 85.1548L624.862 76.0274L623.199 77.1382Z" fill="url(#paint1_linear_1355_1422)" mask="url(#path-1-inside-1_1355_1422)"/>
</g>
</g>
<circle cx="657.5" cy="69.5" r="3.5" fill="#F24545"/>
<circle cx="647" cy="120" r="3" fill="#F24545"/>
<circle cx="724.5" cy="59.5" r="3.5" fill="#F24545"/>
<circle cx="684.5" cy="148.5" r="3.5" fill="#F24545"/>
<defs>
<filter id="filter0_b_1355_1422" x="-30.3223" y="-30.3728" width="822.437" height="643.005" filterUnits="userSpaceOnUse" color-interpolation-filters="sRGB">
<feFlood flood-opacity="0" result="BackgroundImageFix"/>
<feGaussianBlur in="BackgroundImageFix" stdDeviation="25"/>
<feComposite in2="SourceAlpha" operator="in" result="effect1_backgroundBlur_1355_1422"/>
<feBlend mode="normal" in="SourceGraphic" in2="effect1_backgroundBlur_1355_1422" result="shape"/>
</filter>
<linearGradient id="paint0_linear_1355_1422" x1="36.5" y1="545" x2="799" y2="-47.9997" gradientUnits="userSpaceOnUse">
<stop stop-color="white" stop-opacity="0.2"/>
<stop offset="0.224159" stop-color="#F5F7FF" stop-opacity="0.283452"/>
<stop offset="1" stop-color="#9EB7FF"/>
</linearGradient>
<linearGradient id="paint1_linear_1355_1422" x1="440.325" y1="442.253" x2="502.75" y2="461.792" gradientUnits="userSpaceOnUse">
<stop stop-color="#3A60D0" stop-opacity="0"/>
<stop offset="0.234375" stop-color="#385ECD" stop-opacity="0.401042"/>
<stop offset="1" stop-color="#345AC9"/>
</linearGradient>
</defs>
</svg>
